{
DisplayStrings = (
O
);
customParameters = (
{
name = glyphOrder;
value = (
    A,
    Agrave,
    Aacute,
    Adieresis,
    Aring,
    B,
    C,
    D,
    E,
    Egrave,
    Eacute,
    F,
    G,
    H,
    I,
    Igrave,
    Iacute,
    J,
    K,
    L,
    M,
    N,
    O,
    Ograve,
    Oacute,
    Odieresis,
    P,
    Q,
    R,
    S,
    T,
    U,
    Ugrave,
    Uacute,
    V,
    W,
    X,
    Y,
    Z,
    AE,
    Oslash,
    a,
    agrave,
    aacute,
    adieresis,
    aring,
    b,
    c,
    d,
    e,
    egrave,
    eacute,
    f,
    g,
    h,
    i,
    igrave,
    iacute,
    j,
    k,
    l,
    m,
    n,
    o,
    ograve,
    oacute,
    odieresis,
    p,
    q,
    r,
    s,
    t,
    u,
    ugrave,
    uacute,
    udieresis,
    v,
    w,
    x,
    y,
    z,
    ae,
    oslash,
    zero,
    one,
    two,
    three,
    four,
    five,
    six,
    seven,
    eight,
    nine,
    underscore,
    hyphen,
    endash,
    emdash,
    parenleft,
    bracketleft,
    parenright,
    bracketright,
    exclam,
    quotedbl,
    numbersign,
    percent,
    ampersand,
    quotesingle,
    asterisk,
    comma,
    period,
    slash,
    colon,
    semicolon,
    question,
    at,
    backslash,
    questiondown,
    bullet,
    plus,
    less,
    equal,
    greater,
    bar,
    minus,
    dollar,
    asciicircum,
    grave,
    acute,
    ring,
    space,
    ".notdef",
    ".null",
    CR
);
}
);
date = "2015-03-12 12:59:57 +0000";
designer = "Andreas Nymark & Meredith Mandel";
designerURL = "https://www.nymark.me/";
familyName = "Chunked";
fontMaster = (
{
ascender = 750;
capHeight = 750;
descender = "-250";
id = "4E6304A5-AAA7-499A-971C-E934927B9416";
weight = Bold;
weightValue = 900;
widthValue = 5;
xHeight = 500;
}
);
glyphs = (
{
glyphname = A;
layers = (
{
layerId = "4E6304A5-AAA7-499A-971C-E934927B9416";
name = Bold;
paths = (
{
closed = 1;
nodes = (
"808 131 LINE",
"738 131 LINE",
"561 699 LINE",
"177 699 LINE",
"177 570 LINE",
"218 570 LINE",
"83 131 LINE",
"15 131 LINE",
"15 0 LINE",
"333 0 LINE",
"333 131 LINE",
"255 131 LINE",
"276 199 LINE",
"481 199 LINE",
"502 131 LINE",
"407 131 LINE",
"407 0 LINE",
"808 0 LINE"
);
},
{
closed = 1;
nodes = (
"378 535 LINE",
"444 319 LINE",
"313 319 LINE"
);
}
);
width = 823;
}
);
unicode = 0041;
},
{
glyphname = Adieresis;
layers = (
{
layerId = "4E6304A5-AAA7-499A-971C-E934927B9416";
name = Bold;
paths = (
{
closed = 1;
nodes = (
"295 723 CURVE",
"345 723 OFFCURVE",
"386 762 OFFCURVE",
"386 812 CURVE",
"386 861 OFFCURVE",
"345 902 OFFCURVE",
"295 902 CURVE",
"246 902 OFFCURVE",
"207 861 OFFCURVE",
"207 812 CURVE",
"207 762 OFFCURVE",
"246 723 OFFCURVE"
);
},
{
closed = 1;
nodes = (
"503 723 CURVE",
"553 723 OFFCURVE",
"594 762 OFFCURVE",
"594 812 CURVE",
"594 861 OFFCURVE",
"553 902 OFFCURVE",
"503 902 CURVE",
"454 902 OFFCURVE",
"415 861 OFFCURVE",
"415 812 CURVE",
"415 762 OFFCURVE",
"454 723 OFFCURVE"
);
},
{
closed = 1;
nodes = (
"378 535 LINE",
"444 319 LINE",
"313 319 LINE"
);
},
{
closed = 1;
nodes = (
"808 131 LINE",
"738 131 LINE",
"561 699 LINE",
"177 699 LINE",
"177 570 LINE",
"218 570 LINE",
"83 131 LINE",
"15 131 LINE",
"15 0 LINE",
"333 0 LINE",
"333 131 LINE",
"255 131 LINE",
"276 199 LINE",
"481 199 LINE",
"502 131 LINE",
"407 131 LINE",
"407 0 LINE",
"808 0 LINE"
);
}
);
width = 823;
}
);
unicode = 00C4;
userData = {
com.typemytype.robofont.layerData = {
};
};
},
{
glyphname = Aring;
layers = (
{
layerId = "4E6304A5-AAA7-499A-971C-E934927B9416";
name = Bold;
paths = (
{
closed = 1;
nodes = (
"378 535 LINE",
"444 319 LINE",
"313 319 LINE"
);
},
{
closed = 1;
nodes = (
"808 131 LINE",
"738 131 LINE",
"561 699 LINE",
"177 699 LINE",
"177 570 LINE",
"218 570 LINE",
"83 131 LINE",
"15 131 LINE",
"15 0 LINE",
"333 0 LINE",
"333 131 LINE",
"255 131 LINE",
"276 199 LINE",
"481 199 LINE",
"502 131 LINE",
"407 131 LINE",
"407 0 LINE",
"808 0 LINE"
);
},
{
closed = 1;
nodes = (
"391 724 CURVE",
"445 724 OFFCURVE",
"490 767 OFFCURVE",
"490 821 CURVE",
"490 875 OFFCURVE",
"445 920 OFFCURVE",
"391 920 CURVE",
"337 920 OFFCURVE",
"294 875 OFFCURVE",
"294 821 CURVE",
"294 767 OFFCURVE",
"337 724 OFFCURVE"
);
},
{
closed = 1;
nodes = (
"391 782 CURVE",
"369 782 OFFCURVE",
"352 800 OFFCURVE",
"352 822 CURVE",
"352 844 OFFCURVE",
"369 861 OFFCURVE",
"391 861 CURVE",
"413 861 OFFCURVE",
"431 844 OFFCURVE",
"431 822 CURVE",
"431 800 OFFCURVE",
"413 782 OFFCURVE"
);
}
);
width = 835;
}
);
unicode = 00C5;
userData = {
com.typemytype.robofont.layerData = {
};
};
},
{
glyphname = B;
layers = (
{
layerId = "4E6304A5-AAA7-499A-971C-E934927B9416";
name = Bold;
paths = (
{
closed = 1;
nodes = (
"405 0 LINE SMOOTH",
"598 0 OFFCURVE",
"677 62 OFFCURVE",
"677 203 CURVE SMOOTH",
"677 300 OFFCURVE",
"617 353 OFFCURVE",
"545 373 CURVE",
"620 403 OFFCURVE",
"643 444 OFFCURVE",
"643 528 CURVE SMOOTH",
"643 637 OFFCURVE",
"564 699 OFFCURVE",
"398 699 CURVE SMOOTH",
"25 699 LINE",
"25 570 LINE",
"83 570 LINE",
"83 130 LINE",
"25 130 LINE",
"25 0 LINE"
);
},
{
closed = 1;
nodes = (
"290 130 LINE",
"290 304 LINE",
"367 304 LINE SMOOTH",
"422 304 OFFCURVE",
"451 267 OFFCURVE",
"451 216 CURVE SMOOTH",
"451 162 OFFCURVE",
"412 130 OFFCURVE",
"370 130 CURVE SMOOTH"
);
},
{
closed = 1;
nodes = (
"353 567 LINE SMOOTH",
"391 567 OFFCURVE",
"419 540 OFFCURVE",
"419 494 CURVE SMOOTH",
"419 446 OFFCURVE",
"404 417 OFFCURVE",
"351 417 CURVE SMOOTH",
"290 417 LINE",
"290 567 LINE"
);
}
);
width = 687;
}
);
unicode = 0042;
},
{
glyphname = C;
layers = (
{
layerId = "4E6304A5-AAA7-499A-971C-E934927B9416";
name = Bold;
paths = (
{
closed = 1;
nodes = (
"554 253 LINE",
"545 243 OFFCURVE",
"479 155 OFFCURVE",
"395 155 CURVE SMOOTH",
"300 155 OFFCURVE",
"249 244 OFFCURVE",
"249 343 CURVE SMOOTH",
"249 452 OFFCURVE",
"296 541 OFFCURVE",
"368 541 CURVE SMOOTH",
"439 541 OFFCURVE",
"471 480 OFFCURVE",
"474 415 CURVE",
"653 415 LINE",
"653 699 LINE",
"496 699 LINE",
"473 643 LINE",
"464 655 OFFCURVE",
"419 711 OFFCURVE",
"319 711 CURVE SMOOTH",
"188 711 OFFCURVE",
"15 573 OFFCURVE",
"15 343 CURVE SMOOTH",
"15 120 OFFCURVE",
"156 -16 OFFCURVE",
"368 -16 CURVE SMOOTH",
"499 -16 OFFCURVE",
"603 50 OFFCURVE",
"671 125 CURVE"
);
}
);
width = 686;
}
);
unicode = 0043;
},
{
glyphname = D;
layers = (
{
layerId = "4E6304A5-AAA7-499A-971C-E934927B9416";
name = Bold;
paths = (
{
closed = 1;
nodes = (
"326 0 LINE SMOOTH",
"572 0 OFFCURVE",
"710 131 OFFCURVE",
"710 359 CURVE SMOOTH",
"710 550 OFFCURVE",
"572 699 OFFCURVE",
"330 699 CURVE SMOOTH",
"25 699 LINE",
"25 567 LINE",
"87 567 LINE",
"87 133 LINE",
"25 133 LINE",
"25 0 LINE"
);
},
{
closed = 1;
nodes = (
"480 234 OFFCURVE",
"436 135 OFFCURVE",
"330 133 CURVE SMOOTH",
"292 133 LINE",
"292 567 LINE",
"330 567 LINE SMOOTH",
"436 567 OFFCURVE",
"480 466 OFFCURVE",
"480 359 CURVE SMOOTH"
);
}
);
width = 720;
}
);
unicode = 0044;
},
{
glyphname = E;
layers = (
{
layerId = "4E6304A5-AAA7-499A-971C-E934927B9416";
name = Bold;
paths = (
{
closed = 1;
nodes = (
"25 567 LINE",
"88 567 LINE",
"88 133 LINE",
"25 133 LINE",
"25 0 LINE",
"628 0 LINE",
"628 226 LINE",
"455 226 LINE",
"455 133 LINE",
"295 133 LINE",
"295 296 LINE",
"485 296 LINE",
"485 429 LINE",
"295 429 LINE",
"295 567 LINE",
"455 567 LINE",
"455 478 LINE",
"628 478 LINE",
"628 699 LINE",
"25 699 LINE"
);
}
);
width = 653;
}
);
unicode = 0045;
},
{
glyphname = F;
layers = (
{
layerId = "4E6304A5-AAA7-499A-971C-E934927B9416";
name = Bold;
paths = (
{
closed = 1;
nodes = (
"25 567 LINE",
"87 567 LINE",
"87 133 LINE",
"25 133 LINE",
"25 0 LINE",
"397 0 LINE",
"397 133 LINE",
"295 133 LINE",
"295 260 LINE",
"485 260 LINE",
"485 393 LINE",
"295 393 LINE",
"295 567 LINE",
"446 567 LINE",
"446 478 LINE",
"623 478 LINE",
"623 699 LINE",
"25 699 LINE"
);
}
);
width = 638;
}
);
unicode = 0046;
},
{
glyphname = G;
layers = (
{
layerId = "4E6304A5-AAA7-499A-971C-E934927B9416";
name = Bold;
paths = (
{
closed = 1;
nodes = (
"521 0 LINE",
"721 0 LINE",
"721 250 LINE",
"761 250 LINE",
"761 357 LINE",
"429 357 LINE",
"429 250 LINE",
"490 250 LINE",
"490 208 LINE",
"475 182 OFFCURVE",
"451 159 OFFCURVE",
"394 159 CURVE SMOOTH",
"307 159 OFFCURVE",
"257 241 OFFCURVE",
"257 343 CURVE SMOOTH",
"257 443 OFFCURVE",
"313 531 OFFCURVE",
"394 531 CURVE SMOOTH",
"453 531 OFFCURVE",
"505 485 OFFCURVE",
"508 404 CURVE",
"687 404 LINE",
"687 699 LINE",
"538 699 LINE",
"517 627 LINE",
"501 643 OFFCURVE",
"467 711 OFFCURVE",
"322 711 CURVE SMOOTH",
"166 711 OFFCURVE",
"15 561 OFFCURVE",
"15 343 CURVE SMOOTH",
"15 127 OFFCURVE",
"154 -9 OFFCURVE",
"329 -9 CURVE SMOOTH",
"406 -9 OFFCURVE",
"468 26 OFFCURVE",
"490 63 CURVE"
);
}
);
width = 776;
}
);
unicode = 0047;
},
{
glyphname = H;
layers = (
{
layerId = "4E6304A5-AAA7-499A-971C-E934927B9416";
name = Bold;
paths = (
{
closed = 1;
nodes = (
"25 567 LINE",
"80 567 LINE",
"80 132 LINE",
"25 132 LINE",
"25 0 LINE",
"349 0 LINE",
"349 132 LINE",
"287 132 LINE",
"287 283 LINE",
"477 283 LINE",
"477 132 LINE",
"418 132 LINE",
"418 0 LINE",
"743 0 LINE",
"743 132 LINE",
"685 132 LINE",
"685 567 LINE",
"743 567 LINE",
"743 699 LINE",
"418 699 LINE",
"418 567 LINE",
"477 567 LINE",
"477 416 LINE",
"287 416 LINE",
"287 567 LINE",
"349 567 LINE",
"349 699 LINE",
"25 699 LINE"
);
}
);
width = 768;
}
);
unicode = 0048;
},
{
glyphname = I;
layers = (
{
layerId = "4E6304A5-AAA7-499A-971C-E934927B9416";
name = Bold;
paths = (
{
closed = 1;
nodes = (
"25 567 LINE",
"88 567 LINE",
"88 133 LINE",
"25 133 LINE",
"25 0 LINE",
"357 0 LINE",
"357 133 LINE",
"295 133 LINE",
"295 567 LINE",
"357 567 LINE",
"357 699 LINE",
"25 699 LINE"
);
}
);
width = 382;
}
);
unicode = 0049;
},
{
glyphname = J;
layers = (
{
layerId = "4E6304A5-AAA7-499A-971C-E934927B9416";
name = Bold;
paths = (
{
closed = 1;
nodes = (
"21 -193 LINE",
"36 -199 OFFCURVE",
"54 -204 OFFCURVE",
"73 -204 CURVE SMOOTH",
"279 -204 OFFCURVE",
"355 -103 OFFCURVE",
"355 74 CURVE SMOOTH",
"355 568 LINE",
"438 568 LINE",
"438 699 LINE",
"62 699 LINE",
"62 568 LINE",
"148 568 LINE",
"148 74 LINE SMOOTH",
"148 -33 OFFCURVE",
"115 -70 OFFCURVE",
"65 -70 CURVE SMOOTH",
"47 -70 OFFCURVE",
"33 -67 OFFCURVE",
"20 -61 CURVE"
);
}
);
width = 463;
}
);
unicode = 004A;
},
{
glyphname = K;
layers = (
{
layerId = "4E6304A5-AAA7-499A-971C-E934927B9416";
name = Bold;
paths = (
{
closed = 1;
nodes = (
"340 699 LINE",
"25 699 LINE",
"25 570 LINE",
"79 570 LINE",
"79 130 LINE",
"25 130 LINE",
"25 0 LINE",
"340 0 LINE",
"340 130 LINE",
"286 130 LINE",
"286 237 LINE",
"360 300 LINE",
"468 130 LINE",
"400 130 LINE",
"400 0 LINE",
"790 0 LINE",
"790 130 LINE",
"732 130 LINE",
"530 445 LINE",
"675 570 LINE",
"733 570 LINE",
"733 699 LINE",
"400 699 LINE",
"400 570 LINE",
"472 570 LINE",
"286 407 LINE",
"286 570 LINE",
"340 570 LINE"
);
}
);
width = 815;
}
);
unicode = 004B;
},
{
glyphname = L;
layers = (
{
layerId = "4E6304A5-AAA7-499A-971C-E934927B9416";
name = Bold;
paths = (
{
closed = 1;
nodes = (
"25 567 LINE",
"80 567 LINE",
"80 133 LINE",
"25 133 LINE",
"25 0 LINE",
"585 0 LINE",
"585 260 LINE",
"417 260 LINE",
"417 133 LINE",
"288 133 LINE",
"288 567 LINE",
"341 567 LINE",
"341 699 LINE",
"25 699 LINE"
);
}
);
width = 610;
}
);
unicode = 004C;
},
{
glyphname = M;
layers = (
{
layerId = "4E6304A5-AAA7-499A-971C-E934927B9416";
name = Bold;
paths = (
{
closed = 1;
nodes = (
"723 523 LINE",
"723 464 LINE",
"724 130 LINE",
"667 130 LINE",
"667 0 LINE",
"983 0 LINE",
"983 130 LINE",
"928 130 LINE",
"928 570 LINE",
"983 570 LINE",
"983 699 LINE",
"602 699 LINE",
"506 325 LINE",
"405 699 LINE",
"26 699 LINE",
"26 570 LINE",
"79 570 LINE",
"79 129 LINE",
"25 129 LINE",
"25 0 LINE",
"296 0 LINE",
"296 129 LINE",
"239 129 LINE",
"239 523 LINE",
"243 523 LINE",
"246 473 OFFCURVE",
"259 416 OFFCURVE",
"264 399 CURVE SMOOTH",
"376 0 LINE",
"585 0 LINE",
"690 389 LINE SMOOTH",
"697 412 OFFCURVE",
"711 478 OFFCURVE",
"719 523 CURVE"
);
}
);
width = 1008;
}
);
unicode = 004D;
},
{
glyphname = N;
layers = (
{
layerId = "4E6304A5-AAA7-499A-971C-E934927B9416";
name = Bold;
paths = (
{
closed = 1;
nodes = (
"791 699 LINE",
"490 699 LINE",
"490 570 LINE",
"558 570 LINE",
"559 332 LINE",
"313 699 LINE",
"26 699 LINE",
"26 570 LINE",
"84 570 LINE",
"84 129 LINE",
"25 129 LINE",
"25 0 LINE",
"332 0 LINE",
"332 129 LINE",
"255 129 LINE",
"255 381 LINE",
"510 0 LINE",
"725 0 LINE",
"725 570 LINE",
"791 570 LINE"
);
}
);
width = 816;
}
);
unicode = 004E;
},
{
glyphname = O;
layers = (
{
layerId = "4E6304A5-AAA7-499A-971C-E934927B9416";
name = Bold;
paths = (
{
closed = 1;
nodes = (
"599 -18 OFFCURVE",
"725 120 OFFCURVE",
"725 346 CURVE SMOOTH",
"725 571 OFFCURVE",
"611 718 OFFCURVE",
"366 718 CURVE SMOOTH",
"159 718 OFFCURVE",
"15 569 OFFCURVE",
"15 353 CURVE SMOOTH",
"15 103 OFFCURVE",
"164 -18 OFFCURVE",
"373 -18 CURVE SMOOTH"
);
},
{
closed = 1;
nodes = (
"309 139 OFFCURVE",
"262 222 OFFCURVE",
"262 353 CURVE SMOOTH",
"262 477 OFFCURVE",
"304 565 OFFCURVE",
"365 564 CURVE SMOOTH",
"442 564 OFFCURVE",
"475 467 OFFCURVE",
"475 346 CURVE SMOOTH",
"475 222 OFFCURVE",
"436 139 OFFCURVE",
"373 139 CURVE SMOOTH"
);
}
);
width = 740;
}
);
unicode = 004F;
},
{
glyphname = Odieresis;
layers = (
{
layerId = "4E6304A5-AAA7-499A-971C-E934927B9416";
name = Bold;
paths = (
{
closed = 1;
nodes = (
"476 743 CURVE",
"526 743 OFFCURVE",
"567 782 OFFCURVE",
"567 832 CURVE",
"567 881 OFFCURVE",
"526 922 OFFCURVE",
"476 922 CURVE",
"427 922 OFFCURVE",
"388 881 OFFCURVE",
"388 832 CURVE",
"388 782 OFFCURVE",
"427 743 OFFCURVE"
);
},
{
closed = 1;
nodes = (
"268 743 CURVE",
"318 743 OFFCURVE",
"359 782 OFFCURVE",
"359 832 CURVE",
"359 881 OFFCURVE",
"318 922 OFFCURVE",
"268 922 CURVE",
"219 922 OFFCURVE",
"180 881 OFFCURVE",
"180 832 CURVE",
"180 782 OFFCURVE",
"219 743 OFFCURVE"
);
},
{
closed = 1;
nodes = (
"309 139 OFFCURVE",
"262 222 OFFCURVE",
"262 353 CURVE SMOOTH",
"262 477 OFFCURVE",
"304 565 OFFCURVE",
"365 564 CURVE SMOOTH",
"442 564 OFFCURVE",
"475 467 OFFCURVE",
"475 346 CURVE SMOOTH",
"475 222 OFFCURVE",
"436 139 OFFCURVE",
"373 139 CURVE SMOOTH"
);
},
{
closed = 1;
nodes = (
"599 -18 OFFCURVE",
"725 120 OFFCURVE",
"725 346 CURVE SMOOTH",
"725 571 OFFCURVE",
"611 718 OFFCURVE",
"366 718 CURVE SMOOTH",
"159 718 OFFCURVE",
"15 569 OFFCURVE",
"15 353 CURVE SMOOTH",
"15 103 OFFCURVE",
"164 -18 OFFCURVE",
"373 -18 CURVE SMOOTH"
);
}
);
width = 740;
}
);
unicode = 00D6;
userData = {
com.typemytype.robofont.layerData = {
};
};
},
{
glyphname = P;
layers = (
{
layerId = "4E6304A5-AAA7-499A-971C-E934927B9416";
name = Bold;
paths = (
{
closed = 1;
nodes = (
"25 568 LINE",
"81 568 LINE",
"81 132 LINE",
"25 132 LINE",
"25 0 LINE",
"347 0 LINE",
"347 132 LINE",
"286 132 LINE",
"286 287 LINE",
"362 287 LINE SMOOTH",
"505 287 OFFCURVE",
"625 353 OFFCURVE",
"625 485 CURVE SMOOTH",
"625 599 OFFCURVE",
"581 699 OFFCURVE",
"349 699 CURVE SMOOTH",
"25 699 LINE"
);
},
{
closed = 1;
nodes = (
"336 569 LINE SMOOTH",
"394 569 OFFCURVE",
"429 537 OFFCURVE",
"429 478 CURVE SMOOTH",
"429 425 OFFCURVE",
"389 395 OFFCURVE",
"331 395 CURVE SMOOTH",
"286 395 LINE",
"286 569 LINE"
);
}
);
width = 640;
}
);
unicode = 0050;
},
{
glyphname = Q;
layers = (
{
layerId = "4E6304A5-AAA7-499A-971C-E934927B9416";
name = Bold;
paths = (
{
closed = 1;
nodes = (
"384 0 OFFCURVE",
"411 2 OFFCURVE",
"435 6 CURVE",
"457 -53 OFFCURVE",
"508 -105 OFFCURVE",
"590 -105 CURVE SMOOTH",
"690 -105 OFFCURVE",
"740 -34 OFFCURVE",
"740 55 CURVE SMOOTH",
"740 106 LINE",
"674 106 LINE",
"674 77 LINE SMOOTH",
"674 60 OFFCURVE",
"672 32 OFFCURVE",
"654 32 CURVE SMOOTH",
"629 32 OFFCURVE",
"618 66 OFFCURVE",
"610 97 CURVE",
"665 157 OFFCURVE",
"693 242 OFFCURVE",
"693 347 CURVE SMOOTH",
"693 560 OFFCURVE",
"587 702 OFFCURVE",
"351 702 CURVE SMOOTH",
"150 702 OFFCURVE",
"15 558 OFFCURVE",
"15 354 CURVE SMOOTH",
"15 118 OFFCURVE",
"155 0 OFFCURVE",
"357 0 CURVE SMOOTH"
);
},
{
closed = 1;
nodes = (
"298 347 OFFCURVE",
"262 323 OFFCURVE",
"239 299 CURVE",
"236 316 OFFCURVE",
"235 334 OFFCURVE",
"235 354 CURVE SMOOTH",
"235 471 OFFCURVE",
"290 557 OFFCURVE",
"350 556 CURVE SMOOTH",
"424 556 OFFCURVE",
"471 462 OFFCURVE",
"471 347 CURVE SMOOTH",
"471 333 OFFCURVE",
"470 320 OFFCURVE",
"469 308 CURVE",
"437 331 OFFCURVE",
"400 347 OFFCURVE",
"357 347 CURVE SMOOTH"
);
},
{
closed = 1;
nodes = (
"333 150 OFFCURVE",
"310 161 OFFCURVE",
"290 183 CURVE",
"304 223 OFFCURVE",
"324 256 OFFCURVE",
"357 256 CURVE SMOOTH",
"391 256 OFFCURVE",
"403 222 OFFCURVE",
"410 172 CURVE",
"394 158 OFFCURVE",
"376 150 OFFCURVE",
"357 150 CURVE SMOOTH"
);
}
);
width = 755;
}
);
unicode = 0051;
},
{
glyphname = R;
layers = (
{
layerId = "4E6304A5-AAA7-499A-971C-E934927B9416";
name = Bold;
paths = (
{
closed = 1;
nodes = (
"25 568 LINE",
"81 568 LINE",
"81 132 LINE",
"25 132 LINE",
"25 0 LINE",
"348 0 LINE",
"348 132 LINE",
"287 132 LINE",
"287 287 LINE",
"376 287 OFFCURVE",
"387 265 OFFCURVE",
"387 174 CURVE SMOOTH",
"387 57 OFFCURVE",
"450 -12 OFFCURVE",
"581 -12 CURVE SMOOTH",
"692 -12 OFFCURVE",
"727 65 OFFCURVE",
"727 148 CURVE SMOOTH",
"727 203 LINE",
"660 203 LINE",
"660 170 LINE SMOOTH",
"660 150 OFFCURVE",
"652 138 OFFCURVE",
"637 138 CURVE SMOOTH",
"619 138 OFFCURVE",
"613 163 OFFCURVE",
"613 206 CURVE SMOOTH",
"613 278 OFFCURVE",
"551 338 OFFCURVE",
"482 348 CURVE",
"565 360 OFFCURVE",
"627 415 OFFCURVE",
"627 493 CURVE SMOOTH",
"627 607 OFFCURVE",
"582 699 OFFCURVE",
"350 699 CURVE SMOOTH",
"25 699 LINE"
);
},
{
closed = 1;
nodes = (
"337 569 LINE SMOOTH",
"395 569 OFFCURVE",
"428 539 OFFCURVE",
"428 480 CURVE SMOOTH",
"428 427 OFFCURVE",
"390 399 OFFCURVE",
"332 399 CURVE SMOOTH",
"287 399 LINE",
"287 569 LINE"
);
}
);
width = 737;
}
);
unicode = 0052;
},
{
glyphname = S;
layers = (
{
layerId = "4E6304A5-AAA7-499A-971C-E934927B9416";
name = Bold;
paths = (
{
closed = 1;
nodes = (
"200 0 LINE",
"211 77 LINE",
"249 32 OFFCURVE",
"319 -15 OFFCURVE",
"420 -15 CURVE SMOOTH",
"539 -15 OFFCURVE",
"685 41 OFFCURVE",
"685 197 CURVE SMOOTH",
"685 432 OFFCURVE",
"289 408 OFFCURVE",
"289 511 CURVE SMOOTH",
"289 546 OFFCURVE",
"329 564 OFFCURVE",
"358 564 CURVE SMOOTH",
"428 564 OFFCURVE",
"486 522 OFFCURVE",
"486 448 CURVE",
"667 448 LINE",
"667 699 LINE",
"495 699 LINE",
"485 615 LINE",
"445 690 OFFCURVE",
"360 717 OFFCURVE",
"276 717 CURVE SMOOTH",
"178 717 OFFCURVE",
"38 650 OFFCURVE",
"38 502 CURVE SMOOTH",
"38 247 OFFCURVE",
"422 280 OFFCURVE",
"422 202 CURVE SMOOTH",
"422 160 OFFCURVE",
"372 152 OFFCURVE",
"337 152 CURVE",
"295 154 OFFCURVE",
"211 168 OFFCURVE",
"211 252 CURVE",
"25 252 LINE",
"25 0 LINE"
);
}
);
width = 710;
}
);
unicode = 0053;
},
{
glyphname = T;
layers = (
{
layerId = "4E6304A5-AAA7-499A-971C-E934927B9416";
name = Bold;
paths = (
{
closed = 1;
nodes = (
"15 699 LINE",
"15 439 LINE",
"162 439 LINE",
"162 567 LINE",
"248 567 LINE",
"248 133 LINE",
"166 133 LINE",
"166 0 LINE",
"538 0 LINE",
"538 133 LINE",
"455 133 LINE",
"455 567 LINE",
"539 567 LINE",
"539 439 LINE",
"686 439 LINE",
"686 699 LINE"
);
}
);
width = 701;
}
);
unicode = 0054;
},
{
glyphname = U;
layers = (
{
layerId = "4E6304A5-AAA7-499A-971C-E934927B9416";
name = Bold;
paths = (
{
closed = 1;
nodes = (
"15 569 LINE",
"71 569 LINE",
"71 322 LINE SMOOTH",
"71 95 OFFCURVE",
"179 -11 OFFCURVE",
"381 -17 CURVE SMOOTH",
"569 -17 OFFCURVE",
"668 90 OFFCURVE",
"668 327 CURVE SMOOTH",
"668 570 LINE",
"722 570 LINE",
"722 699 LINE",
"426 699 LINE",
"426 567 LINE",
"480 567 LINE",
"480 355 LINE SMOOTH",
"480 183 OFFCURVE",
"440 159 OFFCURVE",
"379 159 CURVE SMOOTH",
"315 159 OFFCURVE",
"279 193 OFFCURVE",
"279 354 CURVE SMOOTH",
"279 570 LINE",
"333 570 LINE",
"333 699 LINE",
"15 699 LINE"
);
}
);
width = 737;
}
);
unicode = 0055;
},
{
glyphname = V;
layers = (
{
layerId = "4E6304A5-AAA7-499A-971C-E934927B9416";
name = Bold;
paths = (
{
closed = 1;
nodes = (
"420 224 LINE",
"418 252 OFFCURVE",
"405 296 OFFCURVE",
"389 345 CURVE",
"304 569 LINE",
"358 569 LINE",
"359 699 LINE",
"-10 699 LINE",
"-10 569 LINE",
"45 569 LINE",
"310 0 LINE",
"494 0 LINE",
"734 569 LINE",
"783 569 LINE",
"783 699 LINE",
"499 699 LINE",
"500 569 LINE",
"552 569 LINE",
"461 351 LINE SMOOTH",
"441 301 OFFCURVE",
"427 252 OFFCURVE",
"425 224 CURVE"
);
}
);
width = 773;
}
);
unicode = 0056;
},
{
glyphname = W;
layers = (
{
layerId = "4E6304A5-AAA7-499A-971C-E934927B9416";
name = Bold;
paths = (
{
closed = 1;
nodes = (
"320 226 LINE",
"316 256 OFFCURVE",
"299 375 OFFCURVE",
"288 423 CURVE",
"262 569 LINE",
"320 569 LINE",
"320 699 LINE",
"-10 699 LINE",
"-10 569 LINE",
"46 569 LINE",
"178 0 LINE",
"410 0 LINE",
"471 240 LINE SMOOTH",
"478 269 OFFCURVE",
"491 332 OFFCURVE",
"495 362 CURVE",
"499 362 LINE",
"504 331 OFFCURVE",
"515 272 OFFCURVE",
"524 238 CURVE SMOOTH",
"584 0 LINE",
"821 0 LINE",
"970 569 LINE",
"1025 569 LINE",
"1025 699 LINE",
"739 699 LINE",
"739 569 LINE",
"794 569 LINE",
"760 417 LINE SMOOTH",
"751 375 OFFCURVE",
"734 271 OFFCURVE",
"730 226 CURVE",
"725 226 LINE",
"720 276 OFFCURVE",
"709 358 OFFCURVE",
"695 423 CURVE SMOOTH",
"632 699 LINE",
"424 699 LINE",
"374 474 LINE SMOOTH",
"354 379 OFFCURVE",
"327 254 OFFCURVE",
"325 226 CURVE"
);
}
);
width = 1015;
}
);
unicode = 0057;
},
{
glyphname = X;
layers = (
{
layerId = "4E6304A5-AAA7-499A-971C-E934927B9416";
name = Bold;
paths = (
{
closed = 1;
nodes = (
"357 129 LINE",
"268 129 LINE",
"371 260 LINE",
"392 232 LINE",
"468 130 LINE",
"411 130 LINE",
"411 0 LINE",
"810 0 LINE",
"810 130 LINE",
"752 130 LINE",
"572 376 LINE",
"723 569 LINE",
"808 569 LINE",
"808 699 LINE",
"476 699 LINE",
"476 569 LINE",
"564 569 LINE",
"462 436 LINE",
"364 569 LINE",
"422 569 LINE",
"422 699 LINE",
"26 699 LINE",
"26 569 LINE",
"78 569 LINE",
"259 320 LINE",
"112 129 LINE",
"25 129 LINE",
"25 0 LINE",
"357 0 LINE"
);
}
);
width = 835;
}
);
unicode = 0058;
},
{
glyphname = Y;
layers = (
{
layerId = "4E6304A5-AAA7-499A-971C-E934927B9416";
name = Bold;
paths = (
{
closed = 1;
nodes = (
"369 384 LINE",
"365 401 OFFCURVE",
"344 446 OFFCURVE",
"338 465 CURVE",
"280 571 LINE",
"332 571 LINE",
"332 699 LINE",
"-10 699 LINE",
"-10 571 LINE",
"39 571 LINE",
"233 248 LINE",
"233 130 LINE",
"176 130 LINE",
"176 0 LINE",
"496 0 LINE",
"496 130 LINE",
"440 130 LINE",
"440 246 LINE",
"625 571 LINE",
"679 571 LINE",
"679 699 LINE",
"410 699 LINE",
"410 571 LINE",
"465 571 LINE",
"410 470 LINE",
"399 446 OFFCURVE",
"377 404 OFFCURVE",
"373 384 CURVE"
);
}
);
width = 669;
}
);
unicode = 0059;
},
{
glyphname = Z;
layers = (
{
layerId = "4E6304A5-AAA7-499A-971C-E934927B9416";
name = Bold;
paths = (
{
closed = 1;
nodes = (
"201 436 LINE",
"200 566 LINE",
"389 567 LINE",
"25 130 LINE",
"25 0 LINE",
"686 0 LINE",
"686 260 LINE",
"509 260 LINE",
"508 132 LINE",
"323 132 LINE",
"689 566 LINE",
"687 699 LINE",
"31 699 LINE",
"31 436 LINE"
);
}
);
width = 714;
}
);
unicode = 005A;
},
{
glyphname = AE;
layers = (
{
layerId = "4E6304A5-AAA7-499A-971C-E934927B9416";
name = Bold;
paths = (
{
closed = 1;
nodes = (
"358 319 LINE",
"480 555 LINE",
"480 319 LINE"
);
},
{
closed = 1;
nodes = (
"323 131 LINE",
"274 130 LINE",
"311 200 LINE",
"480 199 LINE",
"480 133 LINE",
"407 133 LINE",
"407 0 LINE",
"1010 0 LINE",
"1010 226 LINE",
"837 226 LINE",
"837 133 LINE",
"677 133 LINE",
"677 296 LINE",
"867 296 LINE",
"867 429 LINE",
"677 429 LINE",
"677 567 LINE",
"837 567 LINE",
"837 478 LINE",
"1010 478 LINE",
"1010 699 LINE",
"236 699 LINE",
"236 570 LINE",
"307 570 LINE",
"73 131 LINE",
"5 131 LINE",
"5 0 LINE",
"323 0 LINE"
);
}
);
width = 1025;
}
);
unicode = 00C6;
userData = {
com.typemytype.robofont.layerData = {
};
};
},
{
glyphname = Oslash;
layers = (
{
components = (
{
name = O;
transform = "{1, 0, 0, 1, 0, 0}";
}
);
layerId = "4E6304A5-AAA7-499A-971C-E934927B9416";
name = Bold;
paths = (
{
closed = 1;
nodes = (
"127 -30 LINE",
"699 724 LINE",
"602 724 LINE",
"29 -30 LINE"
);
}
);
width = 740;
}
);
unicode = 00D8;
userData = {
com.typemytype.robofont.layerData = {
};
};
},
{
glyphname = a;
layers = (
{
layerId = "4E6304A5-AAA7-499A-971C-E934927B9416";
name = Bold;
paths = (
{
closed = 1;
nodes = (
"78 342 LINE",
"116 363 OFFCURVE",
"168 388 OFFCURVE",
"227 388 CURVE SMOOTH",
"281 388 OFFCURVE",
"322 377 OFFCURVE",
"322 332 CURVE SMOOTH",
"322 297 LINE",
"317 303 OFFCURVE",
"282 332 OFFCURVE",
"223 332 CURVE SMOOTH",
"110 332 OFFCURVE",
"15 261 OFFCURVE",
"15 148 CURVE SMOOTH",
"15 32 OFFCURVE",
"117 -19 OFFCURVE",
"212 -19 CURVE SMOOTH",
"248 -19 OFFCURVE",
"310 -6 OFFCURVE",
"347 45 CURVE",
"371 0 LINE",
"585 0 LINE",
"585 128 LINE",
"525 128 LINE",
"525 323 LINE SMOOTH",
"525 484 OFFCURVE",
"374 529 OFFCURVE",
"254 529 CURVE SMOOTH",
"162 529 OFFCURVE",
"76 482 OFFCURVE",
"36 458 CURVE"
);
},
{
closed = 1;
nodes = (
"228 111 OFFCURVE",
"205 130 OFFCURVE",
"205 158 CURVE SMOOTH",
"205 189 OFFCURVE",
"223 211 OFFCURVE",
"263 211 CURVE SMOOTH",
"305 211 OFFCURVE",
"319 187 OFFCURVE",
"322 182 CURVE",
"322 144 LINE",
"313 129 OFFCURVE",
"288 111 OFFCURVE",
"258 111 CURVE SMOOTH"
);
}
);
width = 600;
}
);
unicode = 0061;
userData = {
com.typemytype.robofont.layerData = {
};
};
},
{
glyphname = adieresis;
layers = (
{
layerId = "4E6304A5-AAA7-499A-971C-E934927B9416";
name = Bold;
paths = (
{
closed = 1;
nodes = (
"385 555 CURVE",
"435 555 OFFCURVE",
"476 594 OFFCURVE",
"476 644 CURVE",
"476 693 OFFCURVE",
"435 734 OFFCURVE",
"385 734 CURVE",
"336 734 OFFCURVE",
"297 693 OFFCURVE",
"297 644 CURVE",
"297 594 OFFCURVE",
"336 555 OFFCURVE"
);
},
{
closed = 1;
nodes = (
"177 555 CURVE",
"227 555 OFFCURVE",
"268 594 OFFCURVE",
"268 644 CURVE",
"268 693 OFFCURVE",
"227 734 OFFCURVE",
"177 734 CURVE",
"128 734 OFFCURVE",
"89 693 OFFCURVE",
"89 644 CURVE",
"89 594 OFFCURVE",
"128 555 OFFCURVE"
);
},
{
closed = 1;
nodes = (
"78 342 LINE",
"116 363 OFFCURVE",
"168 388 OFFCURVE",
"227 388 CURVE SMOOTH",
"281 388 OFFCURVE",
"322 377 OFFCURVE",
"322 332 CURVE SMOOTH",
"322 297 LINE",
"317 303 OFFCURVE",
"282 332 OFFCURVE",
"223 332 CURVE SMOOTH",
"110 332 OFFCURVE",
"15 261 OFFCURVE",
"15 148 CURVE SMOOTH",
"15 32 OFFCURVE",
"117 -19 OFFCURVE",
"212 -19 CURVE SMOOTH",
"248 -19 OFFCURVE",
"310 -6 OFFCURVE",
"347 45 CURVE",
"371 0 LINE",
"585 0 LINE",
"585 128 LINE",
"525 128 LINE",
"525 323 LINE SMOOTH",
"525 484 OFFCURVE",
"374 529 OFFCURVE",
"254 529 CURVE SMOOTH",
"162 529 OFFCURVE",
"76 482 OFFCURVE",
"36 458 CURVE"
);
},
{
closed = 1;
nodes = (
"228 111 OFFCURVE",
"205 130 OFFCURVE",
"205 158 CURVE SMOOTH",
"205 189 OFFCURVE",
"223 211 OFFCURVE",
"263 211 CURVE SMOOTH",
"305 211 OFFCURVE",
"319 187 OFFCURVE",
"322 182 CURVE",
"322 144 LINE",
"313 129 OFFCURVE",
"288 111 OFFCURVE",
"258 111 CURVE SMOOTH"
);
}
);
width = 600;
}
);
unicode = 00E4;
userData = {
com.typemytype.robofont.layerData = {
};
};
},
{
glyphname = aring;
layers = (
{
layerId = "4E6304A5-AAA7-499A-971C-E934927B9416";
name = Bold;
paths = (
{
closed = 1;
nodes = (
"285 556 CURVE",
"339 556 OFFCURVE",
"384 599 OFFCURVE",
"384 653 CURVE",
"384 707 OFFCURVE",
"339 752 OFFCURVE",
"285 752 CURVE",
"231 752 OFFCURVE",
"188 707 OFFCURVE",
"188 653 CURVE",
"188 599 OFFCURVE",
"231 556 OFFCURVE"
);
},
{
closed = 1;
nodes = (
"285 614 CURVE",
"263 614 OFFCURVE",
"246 632 OFFCURVE",
"246 654 CURVE",
"246 676 OFFCURVE",
"263 693 OFFCURVE",
"285 693 CURVE",
"307 693 OFFCURVE",
"325 676 OFFCURVE",
"325 654 CURVE",
"325 632 OFFCURVE",
"307 614 OFFCURVE"
);
},
{
closed = 1;
nodes = (
"78 342 LINE",
"116 363 OFFCURVE",
"168 388 OFFCURVE",
"227 388 CURVE SMOOTH",
"281 388 OFFCURVE",
"322 377 OFFCURVE",
"322 332 CURVE SMOOTH",
"322 297 LINE",
"317 303 OFFCURVE",
"282 332 OFFCURVE",
"223 332 CURVE SMOOTH",
"110 332 OFFCURVE",
"15 261 OFFCURVE",
"15 148 CURVE SMOOTH",
"15 32 OFFCURVE",
"117 -19 OFFCURVE",
"212 -19 CURVE SMOOTH",
"248 -19 OFFCURVE",
"310 -6 OFFCURVE",
"347 45 CURVE",
"371 0 LINE",
"585 0 LINE",
"585 128 LINE",
"525 128 LINE",
"525 323 LINE SMOOTH",
"525 484 OFFCURVE",
"374 529 OFFCURVE",
"254 529 CURVE SMOOTH",
"162 529 OFFCURVE",
"76 482 OFFCURVE",
"36 458 CURVE"
);
},
{
closed = 1;
nodes = (
"228 111 OFFCURVE",
"205 130 OFFCURVE",
"205 158 CURVE SMOOTH",
"205 189 OFFCURVE",
"223 211 OFFCURVE",
"263 211 CURVE SMOOTH",
"305 211 OFFCURVE",
"319 187 OFFCURVE",
"322 182 CURVE",
"322 144 LINE",
"313 129 OFFCURVE",
"288 111 OFFCURVE",
"258 111 CURVE SMOOTH"
);
}
);
width = 611;
}
);
unicode = 00E5;
userData = {
com.typemytype.robofont.layerData = {
};
};
},
{
glyphname = b;
layers = (
{
layerId = "4E6304A5-AAA7-499A-971C-E934927B9416";
name = Bold;
paths = (
{
closed = 1;
nodes = (
"256 0 LINE",
"271 34 LINE",
"299 10 OFFCURVE",
"327 -11 OFFCURVE",
"403 -11 CURVE SMOOTH",
"544 -11 OFFCURVE",
"631 92 OFFCURVE",
"634 246 CURVE SMOOTH",
"637 380 OFFCURVE",
"556 508 OFFCURVE",
"404 508 CURVE SMOOTH",
"355 508 OFFCURVE",
"295 487 OFFCURVE",
"273 461 CURVE",
"273 750 LINE",
"31 750 LINE",
"31 619 LINE",
"73 619 LINE",
"73 130 LINE",
"31 130 LINE",
"31 0 LINE"
);
},
{
closed = 1;
nodes = (
"414 168 OFFCURVE",
"385 119 OFFCURVE",
"343 119 CURVE SMOOTH",
"305 119 OFFCURVE",
"271 171 OFFCURVE",
"271 239 CURVE",
"267 318 OFFCURVE",
"303 367 OFFCURVE",
"342 367 CURVE SMOOTH",
"386 367 OFFCURVE",
"414 304 OFFCURVE",
"414 244 CURVE SMOOTH"
);
}
);
width = 656;
}
);
unicode = 0062;
},
{
glyphname = c;
layers = (
{
layerId = "4E6304A5-AAA7-499A-971C-E934927B9416";
name = Bold;
paths = (
{
closed = 1;
nodes = (
"507 274 LINE",
"507 500 LINE",
"389 500 LINE",
"372 452 LINE",
"355 472 OFFCURVE",
"315 509 OFFCURVE",
"247 509 CURVE SMOOTH",
"119 509 OFFCURVE",
"1 430 OFFCURVE",
"1 253 CURVE SMOOTH",
"1 75 OFFCURVE",
"129 -14 OFFCURVE",
"276 -14 CURVE SMOOTH",
"384 -14 OFFCURVE",
"474 37 OFFCURVE",
"521 88 CURVE",
"433 190 LINE",
"400 154 OFFCURVE",
"365 132 OFFCURVE",
"312 133 CURVE SMOOTH",
"248 134 OFFCURVE",
"209 186 OFFCURVE",
"209 251 CURVE SMOOTH",
"209 316 OFFCURVE",
"238 379 OFFCURVE",
"297 379 CURVE SMOOTH",
"343 379 OFFCURVE",
"358 322 OFFCURVE",
"360 274 CURVE"
);
}
);
width = 531;
}
);
unicode = 0063;
},
{
glyphname = d;
layers = (
{
layerId = "4E6304A5-AAA7-499A-971C-E934927B9416";
name = Bold;
paths = (
{
closed = 1;
nodes = (
"368 472 LINE",
"349 484 OFFCURVE",
"313 510 OFFCURVE",
"242 510 CURVE SMOOTH",
"119 510 OFFCURVE",
"10 411 OFFCURVE",
"10 255 CURVE SMOOTH",
"10 116 OFFCURVE",
"101 -9 OFFCURVE",
"242 -9 CURVE SMOOTH",
"311 -9 OFFCURVE",
"355 25 OFFCURVE",
"368 37 CURVE",
"385 0 LINE",
"619 0 LINE",
"619 130 LINE",
"571 130 LINE",
"571 750 LINE",
"322 750 LINE",
"322 620 LINE",
"368 620 LINE"
);
},
{
closed = 1;
nodes = (
"225 331 OFFCURVE",
"254 380 OFFCURVE",
"296 380 CURVE SMOOTH",
"334 380 OFFCURVE",
"368 328 OFFCURVE",
"368 260 CURVE",
"372 181 OFFCURVE",
"336 132 OFFCURVE",
"297 132 CURVE SMOOTH",
"253 132 OFFCURVE",
"225 195 OFFCURVE",
"225 255 CURVE SMOOTH"
);
}
);
width = 634;
}
);
unicode = 0064;
userData = {
com.typemytype.robofont.layerData = {
};
};
},
{
glyphname = e;
layers = (
{
layerId = "4E6304A5-AAA7-499A-971C-E934927B9416";
name = Bold;
paths = (
{
closed = 1;
nodes = (
"443 166 LINE",
"389 121 OFFCURVE",
"337 118 OFFCURVE",
"303 118 CURVE SMOOTH",
"219 118 OFFCURVE",
"206 173 OFFCURVE",
"200 200 CURVE",
"515 200 LINE",
"536 257 OFFCURVE",
"525 334 OFFCURVE",
"513 369 CURVE SMOOTH",
"484 453 OFFCURVE",
"393 514 OFFCURVE",
"274 514 CURVE SMOOTH",
"123 514 OFFCURVE",
"5 417 OFFCURVE",
"5 253 CURVE SMOOTH",
"5 61 OFFCURVE",
"145 -18 OFFCURVE",
"269 -18 CURVE SMOOTH",
"373 -18 OFFCURVE",
"453 5 OFFCURVE",
"527 69 CURVE"
);
},
{
closed = 1;
nodes = (
"344 379 OFFCURVE",
"353 337 OFFCURVE",
"354 299 CURVE",
"203 299 LINE",
"205 324 OFFCURVE",
"219 379 OFFCURVE",
"280 379 CURVE SMOOTH"
);
}
);
width = 542;
}
);
unicode = 0065;
},
{
glyphname = f;
layers = (
{
layerId = "4E6304A5-AAA7-499A-971C-E934927B9416";
name = Bold;
paths = (
{
closed = 1;
nodes = (
"411 743 LINE",
"385 756 OFFCURVE",
"316 768 OFFCURVE",
"264 768 CURVE SMOOTH",
"84 768 OFFCURVE",
"66 642 OFFCURVE",
"66 585 CURVE SMOOTH",
"66 500 LINE",
"25 500 LINE",
"25 370 LINE",
"66 370 LINE",
"66 131 LINE",
"26 131 LINE",
"26 0 LINE",
"324 0 LINE",
"324 131 LINE",
"264 131 LINE",
"264 370 LINE",
"355 370 LINE",
"355 500 LINE",
"264 500 LINE",
"264 585 LINE SMOOTH",
"264 621 OFFCURVE",
"274 638 OFFCURVE",
"296 638 CURVE SMOOTH",
"323 638 OFFCURVE",
"340 633 OFFCURVE",
"351 628 CURVE"
);
}
);
width = 386;
}
);
unicode = 0066;
},
{
glyphname = g;
layers = (
{
layerId = "4E6304A5-AAA7-499A-971C-E934927B9416";
name = Bold;
paths = (
{
closed = 1;
nodes = (
"24 -117 LINE",
"62 -152 OFFCURVE",
"143 -204 OFFCURVE",
"253 -205 CURVE SMOOTH",
"463 -204 OFFCURVE",
"565 -96 OFFCURVE",
"565 70 CURVE SMOOTH",
"565 369 LINE",
"625 369 LINE",
"625 500 LINE",
"387 500 LINE",
"367 469 LINE",
"347 489 OFFCURVE",
"305 510 OFFCURVE",
"261 510 CURVE SMOOTH",
"96 510 OFFCURVE",
"10 408 OFFCURVE",
"10 253 CURVE SMOOTH",
"10 127 OFFCURVE",
"78 3 OFFCURVE",
"250 3 CURVE SMOOTH",
"314 3 OFFCURVE",
"353 40 OFFCURVE",
"367 58 CURVE",
"367 24 LINE SMOOTH",
"367 -18 OFFCURVE",
"341 -70 OFFCURVE",
"251 -70 CURVE SMOOTH",
"175 -70 OFFCURVE",
"100 -26 OFFCURVE",
"77 -6 CURVE"
);
},
{
closed = 1;
nodes = (
"223 331 OFFCURVE",
"252 380 OFFCURVE",
"294 380 CURVE SMOOTH",
"332 380 OFFCURVE",
"366 328 OFFCURVE",
"366 260 CURVE",
"370 181 OFFCURVE",
"334 132 OFFCURVE",
"295 132 CURVE SMOOTH",
"251 132 OFFCURVE",
"223 195 OFFCURVE",
"223 255 CURVE SMOOTH"
);
}
);
width = 640;
}
);
unicode = 0067;
},
{
glyphname = h;
layers = (
{
layerId = "4E6304A5-AAA7-499A-971C-E934927B9416";
name = Bold;
paths = (
{
closed = 1;
nodes = (
"339 131 LINE",
"267 131 LINE",
"267 272 LINE SMOOTH",
"267 315 OFFCURVE",
"279 365 OFFCURVE",
"330 365 CURVE SMOOTH",
"389 365 OFFCURVE",
"389 306 OFFCURVE",
"389 272 CURVE SMOOTH",
"389 0 LINE",
"646 0 LINE",
"646 131 LINE",
"599 131 LINE",
"599 298 LINE SMOOTH",
"599 403 OFFCURVE",
"579 518 OFFCURVE",
"424 518 CURVE SMOOTH",
"351 518 OFFCURVE",
"278 456 OFFCURVE",
"267 438 CURVE",
"267 750 LINE",
"25 750 LINE",
"25 620 LINE",
"67 620 LINE",
"67 131 LINE",
"25 131 LINE",
"25 0 LINE",
"339 0 LINE"
);
}
);
width = 661;
}
);
unicode = 0068;
},
{
glyphname = i;
layers = (
{
layerId = "4E6304A5-AAA7-499A-971C-E934927B9416";
name = Bold;
paths = (
{
closed = 1;
nodes = (
"305 131 LINE",
"257 131 LINE",
"257 500 LINE",
"25 500 LINE",
"25 370 LINE",
"67 370 LINE",
"67 131 LINE",
"25 131 LINE",
"25 0 LINE",
"305 0 LINE"
);
},
{
closed = 1;
nodes = (
"53 598 OFFCURVE",
"98 545 OFFCURVE",
"161 545 CURVE SMOOTH",
"232 545 OFFCURVE",
"271 591 OFFCURVE",
"271 646 CURVE SMOOTH",
"271 692 OFFCURVE",
"230 748 OFFCURVE",
"161 748 CURVE SMOOTH",
"91 748 OFFCURVE",
"53 692 OFFCURVE",
"53 646 CURVE SMOOTH"
);
}
);
width = 330;
}
);
unicode = 0069;
},
{
glyphname = igrave;
layers = (
{
components = (
{
name = grave;
transform = "{1, 0, 0, 1, -96, 0}";
}
);
layerId = "4E6304A5-AAA7-499A-971C-E934927B9416";
name = Bold;
paths = (
{
closed = 1;
nodes = (
"305 131 LINE",
"257 131 LINE",
"257 500 LINE",
"25 500 LINE SMOOTH",
"25 370 LINE",
"67 370 LINE",
"67 131 LINE",
"25 131 LINE",
"25 0 LINE",
"305 0 LINE"
);
}
);
width = 329;
}
);
unicode = 00EC;
userData = {
com.typemytype.robofont.layerData = {
};
};
},
{
glyphname = iacute;
layers = (
{
components = (
{
name = acute;
transform = "{1, 0, 0, 1, -58, 0}";
}
);
layerId = "4E6304A5-AAA7-499A-971C-E934927B9416";
name = Bold;
paths = (
{
closed = 1;
nodes = (
"305 131 LINE",
"257 131 LINE",
"257 500 LINE",
"25 500 LINE SMOOTH",
"25 370 LINE",
"67 370 LINE",
"67 131 LINE",
"25 131 LINE",
"25 0 LINE",
"305 0 LINE"
);
}
);
width = 330;
}
);
unicode = 00ED;
userData = {
com.typemytype.robofont.layerData = {
};
};
},
{
glyphname = j;
layers = (
{
layerId = "4E6304A5-AAA7-499A-971C-E934927B9416";
name = Bold;
paths = (
{
closed = 1;
nodes = (
"128 70 LINE SMOOTH",
"128 22 OFFCURVE",
"130 -75 OFFCURVE",
"14 -75 CURVE",
"14 -209 LINE",
"280 -209 OFFCURVE",
"318 -54 OFFCURVE",
"318 70 CURVE SMOOTH",
"318 500 LINE",
"86 500 LINE",
"86 370 LINE",
"128 370 LINE"
);
},
{
closed = 1;
nodes = (
"114 598 OFFCURVE",
"159 545 OFFCURVE",
"222 545 CURVE SMOOTH",
"293 545 OFFCURVE",
"332 591 OFFCURVE",
"332 646 CURVE SMOOTH",
"332 692 OFFCURVE",
"291 748 OFFCURVE",
"222 748 CURVE SMOOTH",
"152 748 OFFCURVE",
"114 692 OFFCURVE",
"114 646 CURVE SMOOTH"
);
}
);
width = 360;
}
);
unicode = 006A;
},
{
glyphname = k;
layers = (
{
layerId = "4E6304A5-AAA7-499A-971C-E934927B9416";
name = Bold;
paths = (
{
closed = 1;
nodes = (
"305 0 LINE",
"305 131 LINE",
"268 131 LINE",
"268 215 LINE",
"303 239 LINE",
"379 131 LINE",
"337 131 LINE",
"337 0 LINE",
"633 0 LINE",
"633 131 LINE",
"583 131 LINE",
"448 324 LINE",
"516 367 LINE",
"593 367 LINE",
"593 499 LINE",
"313 499 LINE",
"313 367 LINE",
"385 367 LINE",
"269 298 LINE",
"269 750 LINE",
"38 750 LINE",
"38 619 LINE",
"79 619 LINE",
"79 130 LINE",
"38 130 LINE",
"38 0 LINE"
);
}
);
width = 654;
}
);
unicode = 006B;
},
{
glyphname = l;
layers = (
{
layerId = "4E6304A5-AAA7-499A-971C-E934927B9416";
name = Bold;
paths = (
{
closed = 1;
nodes = (
"317 131 LINE",
"258 131 LINE",
"258 750 LINE",
"26 750 LINE",
"26 621 LINE",
"68 621 LINE",
"68 131 LINE",
"25 131 LINE",
"25 0 LINE",
"317 0 LINE"
);
}
);
width = 332;
}
);
unicode = 006C;
},
{
glyphname = m;
layers = (
{
layerId = "4E6304A5-AAA7-499A-971C-E934927B9416";
name = Bold;
paths = (
{
closed = 1;
nodes = (
"322 131 LINE",
"262 131 LINE",
"262 309 LINE SMOOTH",
"262 350 OFFCURVE",
"275 369 OFFCURVE",
"307 369 CURVE SMOOTH",
"347 369 OFFCURVE",
"349 336 OFFCURVE",
"349 255 CURVE SMOOTH",
"349 0 LINE",
"608 0 LINE",
"608 134 LINE",
"548 134 LINE",
"548 296 LINE SMOOTH",
"548 339 OFFCURVE",
"558 369 OFFCURVE",
"601 369 CURVE SMOOTH",
"648 369 OFFCURVE",
"639 293 OFFCURVE",
"639 245 CURVE SMOOTH",
"639 0 LINE",
"893 0 LINE",
"893 135 LINE",
"844 135 LINE",
"844 273 LINE SMOOTH",
"844 395 OFFCURVE",
"819 513 OFFCURVE",
"657 513 CURVE SMOOTH",
"588 513 OFFCURVE",
"541 476 OFFCURVE",
"510 441 CURVE",
"494 465 OFFCURVE",
"462 513 OFFCURVE",
"361 513 CURVE SMOOTH",
"298 513 OFFCURVE",
"252 459 OFFCURVE",
"236 440 CURVE",
"214 499 LINE",
"25 499 LINE",
"25 367 LINE",
"67 367 LINE",
"67 131 LINE",
"25 131 LINE",
"25 0 LINE",
"322 0 LINE"
);
}
);
width = 908;
}
);
unicode = 006D;
},
{
glyphname = n;
layers = (
{
layerId = "4E6304A5-AAA7-499A-971C-E934927B9416";
name = Bold;
paths = (
{
closed = 1;
nodes = (
"333 131 LINE",
"261 131 LINE",
"261 273 LINE SMOOTH",
"261 316 OFFCURVE",
"273 366 OFFCURVE",
"324 366 CURVE SMOOTH",
"383 366 OFFCURVE",
"380 307 OFFCURVE",
"380 273 CURVE SMOOTH",
"380 0 LINE",
"632 0 LINE",
"632 131 LINE",
"585 131 LINE",
"585 298 LINE SMOOTH",
"585 403 OFFCURVE",
"559 518 OFFCURVE",
"404 518 CURVE SMOOTH",
"341 518 OFFCURVE",
"295 485 OFFCURVE",
"261 438 CURVE",
"238 500 LINE",
"25 500 LINE",
"25 370 LINE",
"67 370 LINE",
"67 131 LINE",
"25 131 LINE",
"25 0 LINE",
"333 0 LINE"
);
}
);
width = 647;
}
);
unicode = 006E;
},
{
glyphname = o;
layers = (
{
layerId = "4E6304A5-AAA7-499A-971C-E934927B9416";
name = Bold;
paths = (
{
closed = 1;
nodes = (
"442 -13 OFFCURVE",
"565 82 OFFCURVE",
"563 248 CURVE SMOOTH",
"560 415 OFFCURVE",
"443 510 OFFCURVE",
"285 512 CURVE SMOOTH",
"147 512 OFFCURVE",
"12 419 OFFCURVE",
"11 252 CURVE SMOOTH",
"9 75 OFFCURVE",
"147 -13 OFFCURVE",
"290 -13 CURVE SMOOTH"
);
},
{
closed = 1;
nodes = (
"248 115 OFFCURVE",
"216 169 OFFCURVE",
"216 251 CURVE SMOOTH",
"216 324 OFFCURVE",
"246 382 OFFCURVE",
"285 382 CURVE SMOOTH",
"332 381 OFFCURVE",
"358 323 OFFCURVE",
"358 248 CURVE SMOOTH",
"358 173 OFFCURVE",
"333 115 OFFCURVE",
"290 115 CURVE SMOOTH"
);
}
);
width = 574;
}
);
unicode = 006F;
},
{
glyphname = odieresis;
layers = (
{
layerId = "4E6304A5-AAA7-499A-971C-E934927B9416";
name = Bold;
paths = (
{
closed = 1;
nodes = (
"177 555 CURVE",
"227 555 OFFCURVE",
"268 594 OFFCURVE",
"268 644 CURVE",
"268 693 OFFCURVE",
"227 734 OFFCURVE",
"177 734 CURVE",
"128 734 OFFCURVE",
"89 693 OFFCURVE",
"89 644 CURVE",
"89 594 OFFCURVE",
"128 555 OFFCURVE"
);
},
{
closed = 1;
nodes = (
"385 555 CURVE",
"435 555 OFFCURVE",
"476 594 OFFCURVE",
"476 644 CURVE",
"476 693 OFFCURVE",
"435 734 OFFCURVE",
"385 734 CURVE",
"336 734 OFFCURVE",
"297 693 OFFCURVE",
"297 644 CURVE",
"297 594 OFFCURVE",
"336 555 OFFCURVE"
);
},
{
closed = 1;
nodes = (
"248 115 OFFCURVE",
"216 169 OFFCURVE",
"216 251 CURVE SMOOTH",
"216 324 OFFCURVE",
"246 382 OFFCURVE",
"285 382 CURVE SMOOTH",
"332 381 OFFCURVE",
"358 323 OFFCURVE",
"358 248 CURVE SMOOTH",
"358 173 OFFCURVE",
"333 115 OFFCURVE",
"290 115 CURVE SMOOTH"
);
},
{
closed = 1;
nodes = (
"442 -13 OFFCURVE",
"565 82 OFFCURVE",
"563 248 CURVE SMOOTH",
"560 415 OFFCURVE",
"443 510 OFFCURVE",
"285 512 CURVE SMOOTH",
"147 512 OFFCURVE",
"12 419 OFFCURVE",
"11 252 CURVE SMOOTH",
"9 75 OFFCURVE",
"147 -13 OFFCURVE",
"290 -13 CURVE SMOOTH"
);
}
);
width = 574;
}
);
unicode = 00F6;
userData = {
com.typemytype.robofont.layerData = {
};
};
},
{
glyphname = p;
layers = (
{
layerId = "4E6304A5-AAA7-499A-971C-E934927B9416";
name = Bold;
paths = (
{
closed = 1;
nodes = (
"413 168 OFFCURVE",
"384 119 OFFCURVE",
"342 119 CURVE SMOOTH",
"304 119 OFFCURVE",
"270 171 OFFCURVE",
"270 239 CURVE",
"266 318 OFFCURVE",
"302 367 OFFCURVE",
"341 367 CURVE SMOOTH",
"385 367 OFFCURVE",
"413 304 OFFCURVE",
"413 244 CURVE SMOOTH"
);
},
{
closed = 1;
nodes = (
"25 -204 LINE",
"324 -204 LINE",
"324 -73 LINE",
"270 -73 LINE",
"270 28 LINE",
"277 22 OFFCURVE",
"317 -11 OFFCURVE",
"400 -11 CURVE SMOOTH",
"529 -11 OFFCURVE",
"628 87 OFFCURVE",
"628 246 CURVE SMOOTH",
"628 388 OFFCURVE",
"548 508 OFFCURVE",
"392 508 CURVE SMOOTH",
"332 508 OFFCURVE",
"290 479 OFFCURVE",
"271 465 CURVE",
"254 500 LINE",
"25 500 LINE",
"25 367 LINE",
"67 367 LINE",
"67 -73 LINE",
"25 -73 LINE"
);
}
);
width = 638;
}
);
unicode = 0070;
},
{
glyphname = q;
layers = (
{
layerId = "4E6304A5-AAA7-499A-971C-E934927B9416";
name = Bold;
paths = (
{
closed = 1;
nodes = (
"383 181 OFFCURVE",
"354 132 OFFCURVE",
"312 132 CURVE SMOOTH",
"274 132 OFFCURVE",
"240 184 OFFCURVE",
"240 252 CURVE",
"236 331 OFFCURVE",
"272 380 OFFCURVE",
"311 380 CURVE SMOOTH",
"355 380 OFFCURVE",
"383 317 OFFCURVE",
"383 257 CURVE SMOOTH"
);
},
{
closed = 1;
nodes = (
"318 -230 LINE",
"635 -230 LINE",
"635 -96 LINE",
"586 -96 LINE",
"586 370 LINE",
"635 370 LINE",
"635 500 LINE",
"402 500 LINE",
"383 470 LINE",
"373 483 OFFCURVE",
"329 510 OFFCURVE",
"264 510 CURVE SMOOTH",
"131 510 OFFCURVE",
"25 426 OFFCURVE",
"25 253 CURVE SMOOTH",
"25 92 OFFCURVE",
"127 -9 OFFCURVE",
"255 -9 CURVE SMOOTH",
"314 -9 OFFCURVE",
"360 14 OFFCURVE",
"383 33 CURVE",
"383 -99 LINE",
"318 -99 LINE"
);
}
);
width = 660;
}
);
unicode = 0071;
},
{
glyphname = r;
layers = (
{
layerId = "4E6304A5-AAA7-499A-971C-E934927B9416";
name = Bold;
paths = (
{
closed = 1;
nodes = (
"308 131 LINE",
"258 131 LINE",
"258 234 LINE SMOOTH",
"258 322 OFFCURVE",
"309 345 OFFCURVE",
"399 345 CURVE",
"399 525 LINE",
"296 525 OFFCURVE",
"270 484 OFFCURVE",
"244 436 CURVE",
"214 500 LINE",
"26 500 LINE",
"26 370 LINE",
"69 370 LINE",
"69 131 LINE",
"25 131 LINE",
"25 0 LINE",
"308 0 LINE"
);
}
);
width = 414;
}
);
unicode = 0072;
},
{
glyphname = s;
layers = (
{
layerId = "4E6304A5-AAA7-499A-971C-E934927B9416";
name = Bold;
paths = (
{
closed = 1;
nodes = (
"140 0 LINE",
"149 61 LINE",
"173 23 OFFCURVE",
"230 -12 OFFCURVE",
"302 -12 CURVE SMOOTH",
"399 -12 OFFCURVE",
"488 44 OFFCURVE",
"488 138 CURVE SMOOTH",
"488 243 OFFCURVE",
"403 272 OFFCURVE",
"327 298 CURVE SMOOTH",
"263 320 OFFCURVE",
"204 332 OFFCURVE",
"204 360 CURVE SMOOTH",
"204 385 OFFCURVE",
"222 396 OFFCURVE",
"243 396 CURVE SMOOTH",
"293 396 OFFCURVE",
"345 362 OFFCURVE",
"345 320 CURVE",
"475 320 LINE",
"475 500 LINE",
"352 500 LINE",
"344 434 LINE",
"323 477 OFFCURVE",
"263 512 OFFCURVE",
"195 512 CURVE SMOOTH",
"124 512 OFFCURVE",
"19 469 OFFCURVE",
"19 367 CURVE SMOOTH",
"19 273 OFFCURVE",
"84 231 OFFCURVE",
"152 207 CURVE SMOOTH",
"224 182 OFFCURVE",
"299 177 OFFCURVE",
"299 147 CURVE SMOOTH",
"299 119 OFFCURVE",
"275 113 OFFCURVE",
"255 113 CURVE SMOOTH",
"225 113 OFFCURVE",
"149 127 OFFCURVE",
"149 180 CURVE",
"15 180 LINE",
"15 0 LINE"
);
}
);
width = 508;
}
);
unicode = 0073;
},
{
glyphname = t;
layers = (
{
layerId = "4E6304A5-AAA7-499A-971C-E934927B9416";
name = Bold;
paths = (
{
closed = 1;
nodes = (
"15 370 LINE",
"69 370 LINE",
"69 192 LINE SMOOTH",
"72 64 OFFCURVE",
"77 -18 OFFCURVE",
"227 -18 CURVE SMOOTH",
"250 -18 OFFCURVE",
"318 -11 OFFCURVE",
"348 1 CURVE",
"348 129 LINE",
"329 121 OFFCURVE",
"298 112 OFFCURVE",
"285 112 CURVE SMOOTH",
"246 112 OFFCURVE",
"253 158 OFFCURVE",
"253 192 CURVE SMOOTH",
"253 370 LINE",
"348 370 LINE",
"348 500 LINE",
"253 500 LINE",
"253 651 LINE",
"69 592 LINE",
"69 500 LINE",
"15 500 LINE"
);
}
);
width = 363;
}
);
unicode = 0074;
},
{
glyphname = u;
layers = (
{
layerId = "4E6304A5-AAA7-499A-971C-E934927B9416";
name = Bold;
paths = (
{
closed = 1;
nodes = (
"15 368 LINE",
"57 368 LINE",
"57 230 LINE SMOOTH",
"57 64 OFFCURVE",
"107 -14 OFFCURVE",
"258 -14 CURVE SMOOTH",
"343 -14 OFFCURVE",
"378 38 OFFCURVE",
"400 63 CURVE",
"427 0 LINE",
"616 0 LINE",
"616 133 LINE",
"567 133 LINE",
"567 500 LINE",
"308 500 LINE",
"308 368 LINE",
"374 368 LINE",
"374 209 LINE SMOOTH",
"374 164 OFFCURVE",
"346 133 OFFCURVE",
"311 133 CURVE SMOOTH",
"270 133 OFFCURVE",
"257 173 OFFCURVE",
"257 259 CURVE SMOOTH",
"257 500 LINE",
"15 500 LINE"
);
}
);
width = 631;
}
);
unicode = 0075;
},
{
glyphname = udieresis;
layers = (
{
layerId = "4E6304A5-AAA7-499A-971C-E934927B9416";
name = Bold;
paths = (
{
closed = 1;
nodes = (
"385 555 CURVE",
"435 555 OFFCURVE",
"476 594 OFFCURVE",
"476 644 CURVE",
"476 693 OFFCURVE",
"435 734 OFFCURVE",
"385 734 CURVE",
"336 734 OFFCURVE",
"297 693 OFFCURVE",
"297 644 CURVE",
"297 594 OFFCURVE",
"336 555 OFFCURVE"
);
},
{
closed = 1;
nodes = (
"177 555 CURVE",
"227 555 OFFCURVE",
"268 594 OFFCURVE",
"268 644 CURVE",
"268 693 OFFCURVE",
"227 734 OFFCURVE",
"177 734 CURVE",
"128 734 OFFCURVE",
"89 693 OFFCURVE",
"89 644 CURVE",
"89 594 OFFCURVE",
"128 555 OFFCURVE"
);
},
{
closed = 1;
nodes = (
"15 368 LINE",
"57 368 LINE",
"57 230 LINE SMOOTH",
"57 64 OFFCURVE",
"107 -14 OFFCURVE",
"258 -14 CURVE SMOOTH",
"343 -14 OFFCURVE",
"378 38 OFFCURVE",
"400 63 CURVE",
"427 0 LINE",
"616 0 LINE",
"616 133 LINE",
"567 133 LINE",
"567 500 LINE",
"308 500 LINE",
"308 368 LINE",
"374 368 LINE",
"374 209 LINE SMOOTH",
"374 164 OFFCURVE",
"346 133 OFFCURVE",
"311 133 CURVE SMOOTH",
"270 133 OFFCURVE",
"257 173 OFFCURVE",
"257 259 CURVE SMOOTH",
"257 500 LINE",
"15 500 LINE"
);
}
);
width = 631;
}
);
unicode = 00FC;
userData = {
com.typemytype.robofont.layerData = {
};
};
},
{
glyphname = v;
layers = (
{
layerId = "4E6304A5-AAA7-499A-971C-E934927B9416";
name = Bold;
paths = (
{
closed = 1;
nodes = (
"326 162 LINE",
"324 183 OFFCURVE",
"313 229 OFFCURVE",
"300 267 CURVE",
"254 373 LINE",
"304 373 LINE",
"304 500 LINE",
"0 500 LINE",
"0 373 LINE",
"47 373 LINE",
"233 0 LINE",
"388 0 LINE",
"561 373 LINE",
"613 373 LINE",
"613 500 LINE",
"355 500 LINE",
"355 373 LINE",
"408 373 LINE",
"360 272 LINE SMOOTH",
"343 233 OFFCURVE",
"331 183 OFFCURVE",
"330 162 CURVE"
);
}
);
width = 613;
}
);
unicode = 0076;
},
{
glyphname = w;
layers = (
{
layerId = "4E6304A5-AAA7-499A-971C-E934927B9416";
name = Bold;
paths = (
{
closed = 1;
nodes = (
"282 153 LINE",
"280 182 OFFCURVE",
"271 249 OFFCURVE",
"257 297 CURVE SMOOTH",
"235 370 LINE",
"269 370 LINE",
"269 500 LINE",
"0 500 LINE",
"0 370 LINE",
"43 370 LINE",
"156 0 LINE",
"362 0 LINE",
"434 226 LINE",
"503 0 LINE",
"714 0 LINE",
"831 370 LINE",
"872 370 LINE",
"872 500 LINE",
"628 500 LINE",
"628 370 LINE",
"669 370 LINE",
"652 311 LINE SMOOTH",
"637 258 OFFCURVE",
"628 185 OFFCURVE",
"625 153 CURVE",
"623 153 LINE",
"619 188 OFFCURVE",
"604 293 OFFCURVE",
"580 370 CURVE SMOOTH",
"542 500 LINE",
"357 500 LINE",
"325 388 LINE SMOOTH",
"295 289 OFFCURVE",
"287 194 OFFCURVE",
"284 153 CURVE"
);
}
);
width = 872;
}
);
unicode = 0077;
},
{
glyphname = x;
layers = (
{
layerId = "4E6304A5-AAA7-499A-971C-E934927B9416";
name = Bold;
paths = (
{
closed = 1;
nodes = (
"375 375 LINE",
"442 375 LINE",
"367 299 LINE",
"297 375 LINE",
"344 375 LINE",
"344 500 LINE",
"20 500 LINE",
"20 375 LINE",
"65 375 LINE",
"189 239 LINE",
"87 124 LINE",
"20 124 LINE",
"20 0 LINE",
"276 0 LINE",
"276 124 LINE",
"211 124 LINE",
"283 205 LINE",
"359 124 LINE",
"312 124 LINE",
"312 0 LINE",
"631 0 LINE",
"631 124 LINE",
"584 124 LINE",
"458 268 LINE",
"564 375 LINE",
"630 375 LINE",
"630 500 LINE",
"375 500 LINE"
);
}
);
width = 649;
}
);
unicode = 0078;
},
{
glyphname = y;
layers = (
{
layerId = "4E6304A5-AAA7-499A-971C-E934927B9416";
name = Bold;
paths = (
{
closed = 1;
nodes = (
"317 217 LINE",
"252 373 LINE",
"299 373 LINE",
"299 500 LINE",
"-9 500 LINE",
"-9 372 LINE",
"32 372 LINE",
"227 2 LINE",
"213 -40 LINE SMOOTH",
"203 -70 OFFCURVE",
"180 -99 OFFCURVE",
"149 -93 CURVE SMOOTH",
"128 -89 OFFCURVE",
"108 -74 OFFCURVE",
"91 -59 CURVE",
"16 -177 LINE",
"46 -203 OFFCURVE",
"85 -224 OFFCURVE",
"137 -227 CURVE",
"282 -228 OFFCURVE",
"323 -148 OFFCURVE",
"352 -86 CURVE",
"542 376 LINE",
"590 376 LINE",
"590 500 LINE",
"336 500 LINE",
"336 373 LINE",
"382 373 LINE"
);
}
);
width = 580;
}
);
unicode = 0079;
},
{
glyphname = z;
layers = (
{
layerId = "4E6304A5-AAA7-499A-971C-E934927B9416";
name = Bold;
paths = (
{
closed = 1;
nodes = (
"155 300 LINE",
"155 371 LINE",
"266 371 LINE",
"25 131 LINE",
"25 0 LINE",
"528 0 LINE",
"528 199 LINE",
"387 199 LINE",
"387 131 LINE",
"282 131 LINE",
"520 371 LINE",
"520 500 LINE",
"25 500 LINE",
"25 300 LINE"
);
}
);
width = 553;
}
);
unicode = 007A;
},
{
glyphname = ae;
layers = (
{
layerId = "4E6304A5-AAA7-499A-971C-E934927B9416";
name = Bold;
paths = (
{
closed = 1;
nodes = (
"205 158 CURVE SMOOTH",
"205 189 OFFCURVE",
"223 211 OFFCURVE",
"263 211 CURVE SMOOTH",
"305 211 OFFCURVE",
"319 187 OFFCURVE",
"322 182 CURVE",
"322 144 LINE",
"313 129 OFFCURVE",
"288 111 OFFCURVE",
"258 111 CURVE SMOOTH",
"228 111 OFFCURVE",
"205 130 OFFCURVE"
);
},
{
closed = 1;
nodes = (
"589 -18 CURVE SMOOTH",
"693 -18 OFFCURVE",
"773 5 OFFCURVE",
"847 69 CURVE",
"763 166 LINE",
"709 121 OFFCURVE",
"657 118 OFFCURVE",
"623 118 CURVE SMOOTH",
"539 118 OFFCURVE",
"526 173 OFFCURVE",
"520 200 CURVE",
"835 200 LINE",
"856 257 OFFCURVE",
"845 334 OFFCURVE",
"833 369 CURVE SMOOTH",
"804 453 OFFCURVE",
"713 514 OFFCURVE",
"594 514 CURVE SMOOTH",
"538 514 OFFCURVE",
"487 501 OFFCURVE",
"445 476 CURVE",
"391 510 OFFCURVE",
"318 519 OFFCURVE",
"254 519 CURVE SMOOTH",
"162 519 OFFCURVE",
"76 473 OFFCURVE",
"36 449 CURVE",
"78 342 LINE",
"116 363 OFFCURVE",
"168 388 OFFCURVE",
"227 388 CURVE SMOOTH",
"281 388 OFFCURVE",
"322 377 OFFCURVE",
"322 332 CURVE SMOOTH",
"322 297 LINE",
"317 303 OFFCURVE",
"282 332 OFFCURVE",
"223 332 CURVE SMOOTH",
"110 332 OFFCURVE",
"15 261 OFFCURVE",
"15 148 CURVE SMOOTH",
"15 32 OFFCURVE",
"117 -19 OFFCURVE",
"212 -19 CURVE SMOOTH",
"248 -19 OFFCURVE",
"336 -7 OFFCURVE",
"381 76 CURVE",
"433 11 OFFCURVE",
"514 -18 OFFCURVE"
);
},
{
closed = 1;
nodes = (
"674 299 CURVE",
"523 299 LINE",
"525 324 OFFCURVE",
"539 379 OFFCURVE",
"600 379 CURVE SMOOTH",
"664 379 OFFCURVE",
"673 337 OFFCURVE"
);
}
);
width = 862;
}
);
unicode = 00E6;
userData = {
com.typemytype.robofont.layerData = {
};
};
},
{
glyphname = oslash;
layers = (
{
components = (
{
name = o;
transform = "{1, 0, 0, 1, 0, 0}";
}
);
layerId = "4E6304A5-AAA7-499A-971C-E934927B9416";
name = Bold;
paths = (
{
closed = 1;
nodes = (
"98 -26 LINE",
"543 519 LINE",
"465 519 LINE",
"19 -26 LINE"
);
}
);
width = 574;
}
);
unicode = 00F8;
userData = {
com.typemytype.robofont.layerData = {
};
};
},
{
glyphname = zero;
layers = (
{
layerId = "4E6304A5-AAA7-499A-971C-E934927B9416";
name = Bold;
paths = (
{
closed = 1;
nodes = (
"483 -12 OFFCURVE",
"584 124 OFFCURVE",
"584 346 CURVE SMOOTH",
"584 567 OFFCURVE",
"493 712 OFFCURVE",
"297 712 CURVE SMOOTH",
"131 712 OFFCURVE",
"15 565 OFFCURVE",
"15 353 CURVE SMOOTH",
"15 107 OFFCURVE",
"135 -12 OFFCURVE",
"302 -12 CURVE SMOOTH"
);
},
{
closed = 1;
nodes = (
"262 143 OFFCURVE",
"213 224 OFFCURVE",
"213 353 CURVE SMOOTH",
"213 475 OFFCURVE",
"259 552 OFFCURVE",
"296 551 CURVE SMOOTH",
"345 551 OFFCURVE",
"383 465 OFFCURVE",
"383 346 CURVE SMOOTH",
"383 224 OFFCURVE",
"348 143 OFFCURVE",
"302 143 CURVE SMOOTH"
);
}
);
width = 599;
}
);
unicode = 0030;
},
{
glyphname = one;
layers = (
{
layerId = "4E6304A5-AAA7-499A-971C-E934927B9416";
name = Bold;
paths = (
{
closed = 1;
nodes = (
"71 457 LINE",
"171 504 LINE",
"171 133 LINE",
"71 133 LINE",
"71 0 LINE",
"471 0 LINE",
"471 133 LINE",
"378 133 LINE",
"378 699 LINE",
"200 699 LINE",
"127 612 OFFCURVE",
"82 596 OFFCURVE",
"25 568 CURVE"
);
}
);
width = 496;
}
);
unicode = 0031;
},
{
glyphname = two;
layers = (
{
layerId = "4E6304A5-AAA7-499A-971C-E934927B9416";
name = Bold;
paths = (
{
closed = 1;
nodes = (
"141 472 LINE",
"171 504 OFFCURVE",
"210 548 OFFCURVE",
"264 548 CURVE SMOOTH",
"310 548 OFFCURVE",
"348 533 OFFCURVE",
"348 482 CURVE SMOOTH",
"348 420 OFFCURVE",
"242 378 OFFCURVE",
"171 315 CURVE",
"107 264 OFFCURVE",
"80 235 OFFCURVE",
"25 145 CURVE",
"25 0 LINE",
"565 0 LINE",
"565 213 LINE",
"397 213 LINE",
"397 133 LINE",
"221 133 LINE",
"244 173 OFFCURVE",
"323 236 OFFCURVE",
"371 267 CURVE SMOOTH",
"477 336 OFFCURVE",
"531 376 OFFCURVE",
"531 491 CURVE SMOOTH",
"531 626 OFFCURVE",
"426 710 OFFCURVE",
"293 710 CURVE SMOOTH",
"193 710 OFFCURVE",
"103 667 OFFCURVE",
"33 586 CURVE"
);
}
);
width = 590;
}
);
unicode = 0032;
},
{
glyphname = three;
layers = (
{
layerId = "4E6304A5-AAA7-499A-971C-E934927B9416";
name = Bold;
paths = (
{
closed = 1;
nodes = (
"383 -13 OFFCURVE",
"525 59 OFFCURVE",
"525 207 CURVE SMOOTH",
"525 297 OFFCURVE",
"464 348 OFFCURVE",
"432 371 CURVE",
"458 391 OFFCURVE",
"506 430 OFFCURVE",
"506 498 CURVE SMOOTH",
"506 626 OFFCURVE",
"414 710 OFFCURVE",
"251 710 CURVE SMOOTH",
"160 710 OFFCURVE",
"73 654 OFFCURVE",
"37 615 CURVE",
"134 498 LINE",
"169 535 OFFCURVE",
"213 558 OFFCURVE",
"251 558 CURVE SMOOTH",
"293 558 OFFCURVE",
"339 533 OFFCURVE",
"339 479 CURVE SMOOTH",
"339 434 OFFCURVE",
"302 410 OFFCURVE",
"254 410 CURVE SMOOTH",
"181 410 LINE",
"181 291 LINE",
"256 291 LINE SMOOTH",
"306 291 OFFCURVE",
"339 272 OFFCURVE",
"339 218 CURVE SMOOTH",
"339 168 OFFCURVE",
"305 141 OFFCURVE",
"249 141 CURVE SMOOTH",
"192 141 OFFCURVE",
"154 169 OFFCURVE",
"117 206 CURVE",
"15 100 LINE",
"54 42 OFFCURVE",
"153 -13 OFFCURVE",
"248 -13 CURVE SMOOTH"
);
}
);
width = 540;
}
);
unicode = 0033;
},
{
glyphname = four;
layers = (
{
layerId = "4E6304A5-AAA7-499A-971C-E934927B9416";
name = Bold;
paths = (
{
closed = 1;
nodes = (
"10 197 LINE",
"298 197 LINE",
"298 132 LINE",
"235 132 LINE",
"235 0 LINE",
"559 0 LINE",
"559 132 LINE",
"505 132 LINE",
"505 197 LINE",
"558 197 LINE",
"558 305 LINE",
"505 305 LINE",
"505 699 LINE",
"298 699 LINE",
"10 340 LINE"
);
},
{
closed = 1;
nodes = (
"150 305 LINE",
"298 490 LINE",
"298 305 LINE"
);
}
);
width = 584;
}
);
unicode = 0034;
},
{
glyphname = five;
layers = (
{
layerId = "4E6304A5-AAA7-499A-971C-E934927B9416";
name = Bold;
paths = (
{
closed = 1;
nodes = (
"408 -13 OFFCURVE",
"562 72 OFFCURVE",
"562 240 CURVE SMOOTH",
"562 395 OFFCURVE",
"446 477 OFFCURVE",
"329 477 CURVE SMOOTH",
"280 477 OFFCURVE",
"241 466 OFFCURVE",
"221 453 CURVE",
"238 550 LINE",
"507 550 LINE",
"507 699 LINE",
"111 699 LINE",
"50 355 LINE",
"178 298 LINE",
"199 320 OFFCURVE",
"226 344 OFFCURVE",
"272 344 CURVE SMOOTH",
"329 344 OFFCURVE",
"374 300 OFFCURVE",
"374 247 CURVE SMOOTH",
"374 189 OFFCURVE",
"331 147 OFFCURVE",
"264 147 CURVE SMOOTH",
"206 147 OFFCURVE",
"163 181 OFFCURVE",
"124 221 CURVE",
"15 108 LINE",
"56 46 OFFCURVE",
"162 -13 OFFCURVE",
"263 -13 CURVE SMOOTH"
);
}
);
width = 577;
}
);
unicode = 0035;
},
{
glyphname = six;
layers = (
{
layerId = "4E6304A5-AAA7-499A-971C-E934927B9416";
name = Bold;
paths = (
{
closed = 1;
nodes = (
"546 631 LINE",
"487 681 OFFCURVE",
"377 712 OFFCURVE",
"310 710 CURVE SMOOTH",
"47 702 OFFCURVE",
"13 437 OFFCURVE",
"16 304 CURVE SMOOTH",
"22 104 OFFCURVE",
"143 -14 OFFCURVE",
"307 -9 CURVE SMOOTH",
"470 -4 OFFCURVE",
"566 110 OFFCURVE",
"566 244 CURVE SMOOTH",
"566 380 OFFCURVE",
"460 472 OFFCURVE",
"332 467 CURVE SMOOTH",
"279 465 OFFCURVE",
"227 442 OFFCURVE",
"201 416 CURVE",
"211 490 OFFCURVE",
"258 550 OFFCURVE",
"332 552 CURVE SMOOTH",
"393 552 OFFCURVE",
"444 521 OFFCURVE",
"478 501 CURVE"
);
},
{
closed = 1;
nodes = (
"366 324 OFFCURVE",
"386 273 OFFCURVE",
"387 234 CURVE SMOOTH",
"388 186 OFFCURVE",
"347 148 OFFCURVE",
"296 148 CURVE SMOOTH",
"232 148 OFFCURVE",
"203 216 OFFCURVE",
"203 266 CURVE",
"219 286 OFFCURVE",
"259 321 OFFCURVE",
"306 323 CURVE SMOOTH"
);
}
);
width = 581;
}
);
unicode = 0036;
},
{
glyphname = seven;
layers = (
{
layerId = "4E6304A5-AAA7-499A-971C-E934927B9416";
name = Bold;
paths = (
{
closed = 1;
nodes = (
"15 501 LINE",
"175 501 LINE",
"175 566 LINE",
"339 566 LINE",
"71 0 LINE",
"287 0 LINE",
"556 566 LINE",
"556 699 LINE",
"15 699 LINE"
);
}
);
width = 566;
}
);
unicode = 0037;
},
{
glyphname = eight;
layers = (
{
layerId = "4E6304A5-AAA7-499A-971C-E934927B9416";
name = Bold;
paths = (
{
closed = 1;
nodes = (
"15 82 OFFCURVE",
"114 -13 OFFCURVE",
"280 -13 CURVE SMOOTH",
"441 -13 OFFCURVE",
"544 82 OFFCURVE",
"544 205 CURVE SMOOTH",
"544 273 OFFCURVE",
"509 345 OFFCURVE",
"441 378 CURVE",
"485 399 OFFCURVE",
"525 448 OFFCURVE",
"525 514 CURVE SMOOTH",
"525 625 OFFCURVE",
"441 711 OFFCURVE",
"286 711 CURVE SMOOTH",
"136 711 OFFCURVE",
"48 625 OFFCURVE",
"48 514 CURVE SMOOTH",
"48 466 OFFCURVE",
"73 411 OFFCURVE",
"123 381 CURVE",
"57 348 OFFCURVE",
"15 270 OFFCURVE",
"15 205 CURVE SMOOTH"
);
},
{
closed = 1;
nodes = (
"188 248 OFFCURVE",
"216 283 OFFCURVE",
"246 300 CURVE",
"292 298 OFFCURVE",
"373 281 OFFCURVE",
"373 211 CURVE SMOOTH",
"372 156 OFFCURVE",
"330 129 OFFCURVE",
"281 129 CURVE SMOOTH",
"231 129 OFFCURVE",
"188 164 OFFCURVE",
"188 211 CURVE SMOOTH"
);
},
{
closed = 1;
nodes = (
"359 492 OFFCURVE",
"336 468 OFFCURVE",
"311 456 CURVE",
"278 457 OFFCURVE",
"212 467 OFFCURVE",
"212 522 CURVE SMOOTH",
"212 555 OFFCURVE",
"245 585 OFFCURVE",
"284 585 CURVE SMOOTH",
"324 585 OFFCURVE",
"359 558 OFFCURVE",
"359 522 CURVE SMOOTH"
);
}
);
width = 559;
}
);
unicode = 0038;
},
{
glyphname = nine;
layers = (
{
layerId = "4E6304A5-AAA7-499A-971C-E934927B9416";
name = Bold;
paths = (
{
closed = 1;
nodes = (
"35 70 LINE",
"94 20 OFFCURVE",
"204 -11 OFFCURVE",
"271 -9 CURVE SMOOTH",
"534 -1 OFFCURVE",
"575 245 OFFCURVE",
"571 397 CURVE SMOOTH",
"565 597 OFFCURVE",
"438 715 OFFCURVE",
"274 710 CURVE SMOOTH",
"111 705 OFFCURVE",
"15 591 OFFCURVE",
"15 457 CURVE SMOOTH",
"15 321 OFFCURVE",
"121 229 OFFCURVE",
"249 234 CURVE SMOOTH",
"302 236 OFFCURVE",
"345 259 OFFCURVE",
"371 285 CURVE",
"372 197 OFFCURVE",
"323 151 OFFCURVE",
"249 149 CURVE SMOOTH",
"188 149 OFFCURVE",
"137 180 OFFCURVE",
"103 200 CURVE"
);
},
{
closed = 1;
nodes = (
"215 377 OFFCURVE",
"195 428 OFFCURVE",
"194 467 CURVE SMOOTH",
"193 515 OFFCURVE",
"234 553 OFFCURVE",
"285 553 CURVE SMOOTH",
"349 553 OFFCURVE",
"369 485 OFFCURVE",
"369 435 CURVE",
"353 415 OFFCURVE",
"322 380 OFFCURVE",
"275 378 CURVE SMOOTH"
);
}
);
width = 587;
}
);
unicode = 0039;
},
{
glyphname = underscore;
layers = (
{
layerId = "4E6304A5-AAA7-499A-971C-E934927B9416";
name = Bold;
paths = (
{
closed = 1;
nodes = (
"25 -1 LINE",
"674 -1 LINE",
"674 82 LINE",
"25 82 LINE"
);
}
);
width = 699;
}
);
unicode = 005F;
},
{
glyphname = hyphen;
layers = (
{
layerId = "4E6304A5-AAA7-499A-971C-E934927B9416";
name = Bold;
paths = (
{
closed = 1;
nodes = (
"25 172 LINE",
"315 172 LINE",
"315 305 LINE",
"25 305 LINE"
);
}
);
width = 340;
}
);
unicode = 002D;
},
{
glyphname = endash;
layers = (
{
layerId = "4E6304A5-AAA7-499A-971C-E934927B9416";
name = Bold;
paths = (
{
closed = 1;
nodes = (
"32 172 LINE",
"409 172 LINE",
"409 305 LINE",
"32 305 LINE"
);
}
);
width = 447;
}
);
unicode = 2013;
},
{
glyphname = emdash;
layers = (
{
layerId = "4E6304A5-AAA7-499A-971C-E934927B9416";
name = Bold;
paths = (
{
closed = 1;
nodes = (
"42 172 LINE",
"581 172 LINE",
"581 305 LINE",
"42 305 LINE"
);
}
);
width = 631;
}
);
unicode = 2014;
},
{
glyphname = parenleft;
layers = (
{
layerId = "4E6304A5-AAA7-499A-971C-E934927B9416";
name = Bold;
paths = (
{
closed = 1;
nodes = (
"260 815 LINE",
"177 743 OFFCURVE",
"25 548 OFFCURVE",
"25 312 CURVE SMOOTH",
"25 84 OFFCURVE",
"152 -111 OFFCURVE",
"260 -209 CURVE",
"363 -102 LINE",
"304 -32 OFFCURVE",
"209 89 OFFCURVE",
"209 312 CURVE SMOOTH",
"209 528 OFFCURVE",
"315 651 OFFCURVE",
"363 709 CURVE"
);
}
);
width = 388;
}
);
unicode = 0028;
},
{
color = (255,0,0,1);
glyphname = bracketleft;
layers = (
{
layerId = "4E6304A5-AAA7-499A-971C-E934927B9416";
name = Bold;
paths = (
{
closed = 1;
nodes = (
"302 -81 LINE",
"177 -81 LINE",
"177 726 LINE",
"302 726 LINE",
"302 859 LINE",
"32 859 LINE",
"32 858 LINE",
"31 858 LINE",
"31 -178 LINE",
"32 -178 LINE",
"32 -214 LINE",
"302 -214 LINE"
);
}
);
width = 349;
}
);
unicode = 005B;
userData = {
com.typemytype.robofont.layerData = {
};
com.typemytype.robofont.mark = (
1,
0,
0,
1
);
};
},
{
glyphname = parenright;
layers = (
{
layerId = "4E6304A5-AAA7-499A-971C-E934927B9416";
name = Bold;
paths = (
{
closed = 1;
nodes = (
"25 708 LINE",
"73 650 OFFCURVE",
"179 527 OFFCURVE",
"179 311 CURVE SMOOTH",
"179 88 OFFCURVE",
"84 -33 OFFCURVE",
"25 -103 CURVE",
"128 -210 LINE",
"236 -112 OFFCURVE",
"363 83 OFFCURVE",
"363 311 CURVE SMOOTH",
"363 547 OFFCURVE",
"211 742 OFFCURVE",
"128 814 CURVE"
);
}
);
width = 388;
}
);
unicode = 0029;
},
{
color = (255,0,0,1);
glyphname = bracketright;
layers = (
{
layerId = "4E6304A5-AAA7-499A-971C-E934927B9416";
name = Bold;
paths = (
{
closed = 1;
nodes = (
"30 725 LINE",
"155 725 LINE",
"155 -82 LINE",
"30 -82 LINE",
"30 -215 LINE",
"300 -215 LINE",
"300 -214 LINE",
"301 -214 LINE",
"301 822 LINE",
"300 822 LINE",
"300 858 LINE",
"30 858 LINE"
);
}
);
width = 312;
}
);
unicode = 005D;
userData = {
com.typemytype.robofont.layerData = {
};
com.typemytype.robofont.mark = (
1,
0,
0,
1
);
};
},
{
glyphname = exclam;
layers = (
{
layerId = "4E6304A5-AAA7-499A-971C-E934927B9416";
name = Bold;
paths = (
{
closed = 1;
nodes = (
"28 50 OFFCURVE",
"77 -1 OFFCURVE",
"142 -1 CURVE SMOOTH",
"215 -1 OFFCURVE",
"261 46 OFFCURVE",
"261 102 CURVE SMOOTH",
"261 159 OFFCURVE",
"213 208 OFFCURVE",
"142 208 CURVE SMOOTH",
"70 208 OFFCURVE",
"28 152 OFFCURVE",
"28 102 CURVE SMOOTH"
);
},
{
closed = 1;
nodes = (
"86 257 LINE",
"218 257 LINE",
"271 509 LINE",
"271 699 LINE",
"32 699 LINE",
"32 509 LINE"
);
}
);
width = 308;
}
);
unicode = 0021;
},
{
glyphname = quotedbl;
layers = (
{
layerId = "4E6304A5-AAA7-499A-971C-E934927B9416";
name = Bold;
paths = (
{
closed = 1;
nodes = (
"35 701 LINE",
"72 402 LINE",
"197 402 LINE",
"227 701 LINE"
);
},
{
closed = 1;
nodes = (
"277 701 LINE",
"308 402 LINE",
"433 402 LINE",
"469 701 LINE"
);
}
);
width = 504;
}
);
unicode = 0022;
},
{
glyphname = numbersign;
layers = (
{
layerId = "4E6304A5-AAA7-499A-971C-E934927B9416";
name = Bold;
paths = (
{
closed = 1;
nodes = (
"70 433 LINE",
"190 433 LINE",
"161 319 LINE",
"15 319 LINE",
"15 183 LINE",
"126 183 LINE",
"80 1 LINE",
"212 -1 LINE",
"258 183 LINE",
"392 183 LINE",
"346 1 LINE",
"478 -1 LINE",
"524 183 LINE",
"680 183 LINE",
"680 319 LINE",
"559 319 LINE",
"588 433 LINE",
"735 433 LINE",
"735 569 LINE",
"622 569 LINE",
"669 752 LINE",
"537 752 LINE",
"490 569 LINE",
"356 569 LINE",
"403 752 LINE",
"271 752 LINE",
"224 569 LINE",
"70 569 LINE"
);
},
{
closed = 1;
nodes = (
"322 433 LINE",
"456 433 LINE",
"427 319 LINE",
"293 319 LINE"
);
}
);
width = 750;
}
);
unicode = 0023;
},
{
glyphname = percent;
layers = (
{
layerId = "4E6304A5-AAA7-499A-971C-E934927B9416";
name = Bold;
paths = (
{
closed = 1;
nodes = (
"843 0 OFFCURVE",
"916 87 OFFCURVE",
"916 204 CURVE SMOOTH",
"916 330 OFFCURVE",
"840 411 OFFCURVE",
"710 411 CURVE SMOOTH",
"607 411 OFFCURVE",
"508 329 OFFCURVE",
"508 207 CURVE SMOOTH",
"508 80 OFFCURVE",
"594 0 OFFCURVE",
"714 0 CURVE SMOOTH"
);
},
{
closed = 1;
nodes = (
"350 306 OFFCURVE",
"423 393 OFFCURVE",
"423 510 CURVE SMOOTH",
"423 636 OFFCURVE",
"347 717 OFFCURVE",
"217 717 CURVE SMOOTH",
"114 717 OFFCURVE",
"15 635 OFFCURVE",
"15 513 CURVE SMOOTH",
"15 386 OFFCURVE",
"101 306 OFFCURVE",
"221 306 CURVE SMOOTH"
);
},
{
closed = 1;
nodes = (
"302 0 LINE",
"735 699 LINE",
"621 699 LINE",
"189 0 LINE"
);
},
{
closed = 1;
nodes = (
"688 92 OFFCURVE",
"657 135 OFFCURVE",
"657 207 CURVE SMOOTH",
"657 277 OFFCURVE",
"686 318 OFFCURVE",
"711 317 CURVE",
"741 317 OFFCURVE",
"766 271 OFFCURVE",
"766 204 CURVE SMOOTH",
"766 135 OFFCURVE",
"744 92 OFFCURVE",
"714 92 CURVE SMOOTH"
);
},
{
closed = 1;
nodes = (
"195 398 OFFCURVE",
"164 441 OFFCURVE",
"164 513 CURVE SMOOTH",
"164 583 OFFCURVE",
"193 624 OFFCURVE",
"218 623 CURVE",
"248 623 OFFCURVE",
"273 577 OFFCURVE",
"273 510 CURVE SMOOTH",
"273 441 OFFCURVE",
"251 398 OFFCURVE",
"221 398 CURVE SMOOTH"
);
}
);
width = 931;
}
);
unicode = 0025;
},
{
glyphname = ampersand;
layers = (
{
layerId = "4E6304A5-AAA7-499A-971C-E934927B9416";
name = Bold;
paths = (
{
closed = 1;
nodes = (
"10 82 OFFCURVE",
"109 -13 OFFCURVE",
"275 -13 CURVE SMOOTH",
"369 -13 OFFCURVE",
"459 15 OFFCURVE",
"512 64 CURVE",
"577 0 LINE",
"726 0 LINE",
"726 130 LINE",
"668 130 LINE",
"606 191 LINE",
"628 224 OFFCURVE",
"647 262 OFFCURVE",
"663 309 CURVE",
"761 309 LINE",
"761 435 LINE",
"547 435 LINE",
"535 394 OFFCURVE",
"519 347 OFFCURVE",
"495 302 CURVE",
"402 395 LINE",
"456 417 OFFCURVE",
"516 462 OFFCURVE",
"516 541 CURVE SMOOTH",
"516 618 OFFCURVE",
"453 711 OFFCURVE",
"298 711 CURVE SMOOTH",
"171 711 OFFCURVE",
"84 625 OFFCURVE",
"84 541 CURVE SMOOTH",
"84 488 OFFCURVE",
"117 435 OFFCURVE",
"157 409 CURVE",
"42 350 OFFCURVE",
"10 270 OFFCURVE",
"10 205 CURVE SMOOTH"
);
},
{
closed = 1;
nodes = (
"197 248 OFFCURVE",
"238 285 OFFCURVE",
"265 302 CURVE",
"269 302 LINE",
"396 177 LINE",
"361 146 OFFCURVE",
"310 135 OFFCURVE",
"278 135 CURVE SMOOTH",
"239 135 OFFCURVE",
"197 163 OFFCURVE",
"197 211 CURVE SMOOTH"
);
},
{
closed = 1;
nodes = (
"355 501 OFFCURVE",
"313 469 OFFCURVE",
"307 472 CURVE",
"286 481 OFFCURVE",
"247 502 OFFCURVE",
"247 544 CURVE SMOOTH",
"247 570 OFFCURVE",
"267 599 OFFCURVE",
"297 599 CURVE SMOOTH",
"340 599 OFFCURVE",
"355 567 OFFCURVE",
"355 538 CURVE SMOOTH"
);
}
);
width = 771;
}
);
unicode = 0026;
},
{
glyphname = quotesingle;
layers = (
{
layerId = "4E6304A5-AAA7-499A-971C-E934927B9416";
name = Bold;
paths = (
{
closed = 1;
nodes = (
"36 701 LINE",
"73 402 LINE",
"198 402 LINE",
"234 701 LINE"
);
}
);
width = 273;
}
);
unicode = 0027;
},
{
glyphname = asterisk;
layers = (
{
layerId = "4E6304A5-AAA7-499A-971C-E934927B9416";
name = Bold;
paths = (
{
closed = 1;
nodes = (
"377 394 LINE",
"287 490 LINE",
"408 530 LINE",
"367 628 LINE",
"254 572 LINE",
"270 699 LINE",
"147 699 LINE",
"160 575 LINE",
"46 628 LINE",
"5 530 LINE",
"123 489 LINE",
"36 395 LINE",
"124 321 LINE",
"207 435 LINE",
"286 324 LINE"
);
}
);
width = 413;
}
);
unicode = 002A;
},
{
glyphname = comma;
layers = (
{
layerId = "4E6304A5-AAA7-499A-971C-E934927B9416";
name = Bold;
paths = (
{
closed = 1;
nodes = (
"109 -194 LINE",
"211 -103 OFFCURVE",
"275 19 OFFCURVE",
"271 148 CURVE",
"89 196 LINE",
"99 45 OFFCURVE",
"65 -40 OFFCURVE",
"-6 -129 CURVE"
);
}
);
width = 272;
}
);
unicode = 002C;
},
{
glyphname = period;
layers = (
{
layerId = "4E6304A5-AAA7-499A-971C-E934927B9416";
name = Bold;
paths = (
{
closed = 1;
nodes = (
"15 51 OFFCURVE",
"62 -4 OFFCURVE",
"128 -4 CURVE SMOOTH",
"203 -4 OFFCURVE",
"243 44 OFFCURVE",
"243 104 CURVE SMOOTH",
"243 155 OFFCURVE",
"201 218 OFFCURVE",
"128 218 CURVE SMOOTH",
"55 218 OFFCURVE",
"15 155 OFFCURVE",
"15 104 CURVE SMOOTH"
);
}
);
width = 258;
}
);
unicode = 002E;
},
{
glyphname = slash;
layers = (
{
layerId = "4E6304A5-AAA7-499A-971C-E934927B9416";
name = Bold;
paths = (
{
closed = 1;
nodes = (
"147 -80 LINE",
"519 752 LINE",
"377 752 LINE",
"5 -78 LINE"
);
}
);
width = 524;
}
);
unicode = 002F;
},
{
glyphname = colon;
layers = (
{
layerId = "4E6304A5-AAA7-499A-971C-E934927B9416";
name = Bold;
paths = (
{
closed = 1;
nodes = (
"15 46 OFFCURVE",
"61 -8 OFFCURVE",
"126 -8 CURVE SMOOTH",
"194 -8 OFFCURVE",
"239 39 OFFCURVE",
"239 98 CURVE SMOOTH",
"239 148 OFFCURVE",
"198 210 OFFCURVE",
"126 210 CURVE SMOOTH",
"54 210 OFFCURVE",
"15 148 OFFCURVE",
"15 98 CURVE SMOOTH"
);
},
{
closed = 1;
nodes = (
"15 350 OFFCURVE",
"64 296 OFFCURVE",
"126 296 CURVE SMOOTH",
"197 296 OFFCURVE",
"239 343 OFFCURVE",
"239 402 CURVE SMOOTH",
"239 452 OFFCURVE",
"198 514 OFFCURVE",
"126 514 CURVE SMOOTH",
"54 514 OFFCURVE",
"15 452 OFFCURVE",
"15 402 CURVE SMOOTH"
);
}
);
width = 254;
}
);
unicode = 003A;
},
{
glyphname = semicolon;
layers = (
{
layerId = "4E6304A5-AAA7-499A-971C-E934927B9416";
name = Bold;
paths = (
{
closed = 1;
nodes = (
"59 332 OFFCURVE",
"109 277 OFFCURVE",
"172 277 CURVE SMOOTH",
"244 277 OFFCURVE",
"287 325 OFFCURVE",
"287 385 CURVE SMOOTH",
"287 436 OFFCURVE",
"245 499 OFFCURVE",
"172 499 CURVE SMOOTH",
"99 499 OFFCURVE",
"59 436 OFFCURVE",
"59 385 CURVE SMOOTH"
);
},
{
closed = 1;
nodes = (
"5 -129 LINE",
"76 -40 OFFCURVE",
"110 45 OFFCURVE",
"100 196 CURVE",
"282 148 LINE",
"286 19 OFFCURVE",
"222 -103 OFFCURVE",
"120 -194 CURVE"
);
}
);
width = 302;
}
);
unicode = 003B;
},
{
glyphname = question;
layers = (
{
layerId = "4E6304A5-AAA7-499A-971C-E934927B9416";
name = Bold;
paths = (
{
closed = 1;
nodes = (
"110 477 LINE",
"144 517 OFFCURVE",
"197 559 OFFCURVE",
"240 559 CURVE SMOOTH",
"275 559 OFFCURVE",
"314 550 OFFCURVE",
"314 512 CURVE SMOOTH",
"314 457 OFFCURVE",
"155 405 OFFCURVE",
"155 313 CURVE SMOOTH",
"156 233 LINE",
"341 233 LINE",
"341 288 LINE SMOOTH",
"341 348 OFFCURVE",
"500 380 OFFCURVE",
"500 510 CURVE SMOOTH",
"500 645 OFFCURVE",
"395 715 OFFCURVE",
"262 715 CURVE SMOOTH",
"162 715 OFFCURVE",
"72 667 OFFCURVE",
"2 586 CURVE"
);
},
{
closed = 1;
nodes = (
"129 50 OFFCURVE",
"178 -1 OFFCURVE",
"243 -1 CURVE SMOOTH",
"316 -1 OFFCURVE",
"362 46 OFFCURVE",
"362 102 CURVE SMOOTH",
"362 159 OFFCURVE",
"314 208 OFFCURVE",
"243 208 CURVE SMOOTH",
"171 208 OFFCURVE",
"129 152 OFFCURVE",
"129 102 CURVE SMOOTH"
);
}
);
width = 520;
}
);
unicode = 003F;
},
{
glyphname = at;
layers = (
{
layerId = "4E6304A5-AAA7-499A-971C-E934927B9416";
name = Bold;
paths = (
{
closed = 1;
nodes = (
"257 451 OFFCURVE",
"187 324 OFFCURVE",
"187 232 CURVE SMOOTH",
"187 109 OFFCURVE",
"279 28 OFFCURVE",
"368 28 CURVE SMOOTH",
"409 28 OFFCURVE",
"448 38 OFFCURVE",
"500 76 CURVE",
"515 62 OFFCURVE",
"536 50 OFFCURVE",
"590 43 CURVE",
"737 43 OFFCURVE",
"774 189 OFFCURVE",
"774 275 CURVE SMOOTH",
"774 473 OFFCURVE",
"625 631 OFFCURVE",
"379 631 CURVE SMOOTH",
"119 631 OFFCURVE",
"5 394 OFFCURVE",
"5 227 CURVE SMOOTH",
"5 -3 OFFCURVE",
"193 -156 OFFCURVE",
"398 -156 CURVE SMOOTH",
"576 -156 OFFCURVE",
"678 -68 OFFCURVE",
"678 -68 CURVE",
"630 1 LINE",
"630 1 OFFCURVE",
"548 -72 OFFCURVE",
"398 -72 CURVE SMOOTH",
"224 -72 OFFCURVE",
"89 63 OFFCURVE",
"89 227 CURVE SMOOTH",
"89 358 OFFCURVE",
"177 546 OFFCURVE",
"379 546 CURVE SMOOTH",
"573 546 OFFCURVE",
"691 426 OFFCURVE",
"691 275 CURVE SMOOTH",
"691 221 OFFCURVE",
"670 128 OFFCURVE",
"590 128 CURVE SMOOTH",
"580 128 OFFCURVE",
"571 129 OFFCURVE",
"553 140 CURVE",
"553 141 OFFCURVE",
"553 141 OFFCURVE",
"552 141 CURVE",
"592 426 LINE",
"493 439 LINE",
"487 399 LINE",
"463 428 OFFCURVE",
"430 451 OFFCURVE",
"389 451 CURVE SMOOTH"
);
},
{
closed = 1;
nodes = (
"452 152 LINE",
"421 134 OFFCURVE",
"395 128 OFFCURVE",
"368 128 CURVE SMOOTH",
"333 128 OFFCURVE",
"297 169 OFFCURVE",
"297 232 CURVE SMOOTH",
"297 282 OFFCURVE",
"329 351 OFFCURVE",
"389 351 CURVE SMOOTH",
"433 351 OFFCURVE",
"459 307 OFFCURVE",
"471 282 CURVE"
);
}
);
width = 779;
}
);
unicode = 0040;
},
{
glyphname = backslash;
layers = (
{
layerId = "4E6304A5-AAA7-499A-971C-E934927B9416";
name = Bold;
paths = (
{
closed = 1;
nodes = (
"519 -78 LINE",
"147 752 LINE",
"5 752 LINE",
"377 -80 LINE"
);
}
);
width = 524;
}
);
unicode = 005C;
},
{
glyphname = questiondown;
layers = (
{
layerId = "4E6304A5-AAA7-499A-971C-E934927B9416";
name = Bold;
paths = (
{
closed = 1;
nodes = (
"518 -25 LINE",
"448 -106 OFFCURVE",
"358 -154 OFFCURVE",
"258 -154 CURVE SMOOTH",
"125 -154 OFFCURVE",
"20 -84 OFFCURVE",
"20 51 CURVE SMOOTH",
"20 181 OFFCURVE",
"179 213 OFFCURVE",
"179 273 CURVE SMOOTH",
"179 328 LINE",
"364 328 LINE",
"365 248 LINE SMOOTH",
"365 156 OFFCURVE",
"206 104 OFFCURVE",
"206 49 CURVE SMOOTH",
"206 11 OFFCURVE",
"245 2 OFFCURVE",
"280 2 CURVE SMOOTH",
"323 2 OFFCURVE",
"376 44 OFFCURVE",
"410 84 CURVE"
);
},
{
closed = 1;
nodes = (
"391 511 OFFCURVE",
"342 562 OFFCURVE",
"277 562 CURVE SMOOTH",
"204 562 OFFCURVE",
"158 515 OFFCURVE",
"158 459 CURVE SMOOTH",
"158 402 OFFCURVE",
"206 353 OFFCURVE",
"277 353 CURVE SMOOTH",
"349 353 OFFCURVE",
"391 409 OFFCURVE",
"391 459 CURVE SMOOTH"
);
}
);
width = 520;
}
);
unicode = 00BF;
},
{
glyphname = bullet;
layers = (
{
layerId = "4E6304A5-AAA7-499A-971C-E934927B9416";
name = Bold;
paths = (
{
closed = 1;
nodes = (
"60 269 OFFCURVE",
"107 214 OFFCURVE",
"173 214 CURVE SMOOTH",
"248 214 OFFCURVE",
"288 262 OFFCURVE",
"288 322 CURVE SMOOTH",
"288 373 OFFCURVE",
"246 436 OFFCURVE",
"173 436 CURVE SMOOTH",
"100 436 OFFCURVE",
"60 373 OFFCURVE",
"60 322 CURVE SMOOTH"
);
}
);
width = 348;
}
);
unicode = 2022;
},
{
glyphname = plus;
layers = (
{
layerId = "4E6304A5-AAA7-499A-971C-E934927B9416";
name = Bold;
paths = (
{
closed = 1;
nodes = (
"522 435 LINE",
"339 435 LINE",
"339 619 LINE",
"209 619 LINE",
"209 435 LINE",
"25 435 LINE",
"25 305 LINE",
"209 305 LINE",
"209 122 LINE",
"339 122 LINE",
"339 305 LINE",
"522 305 LINE"
);
}
);
width = 547;
}
);
unicode = 002B;
},
{
glyphname = less;
layers = (
{
layerId = "4E6304A5-AAA7-499A-971C-E934927B9416";
name = Bold;
paths = (
{
closed = 1;
nodes = (
"35 339 LINE",
"465 162 LINE",
"514 284 LINE",
"208 402 LINE",
"514 519 LINE",
"465 641 LINE",
"35 464 LINE"
);
}
);
width = 549;
}
);
unicode = 003C;
},
{
glyphname = equal;
layers = (
{
layerId = "4E6304A5-AAA7-499A-971C-E934927B9416";
name = Bold;
paths = (
{
closed = 1;
nodes = (
"25 172 LINE",
"437 172 LINE",
"437 305 LINE",
"25 305 LINE"
);
},
{
closed = 1;
nodes = (
"25 393 LINE",
"437 393 LINE",
"437 526 LINE",
"25 526 LINE"
);
}
);
width = 462;
}
);
unicode = 003D;
},
{
glyphname = greater;
layers = (
{
layerId = "4E6304A5-AAA7-499A-971C-E934927B9416";
name = Bold;
paths = (
{
closed = 1;
nodes = (
"514 465 LINE",
"84 642 LINE",
"35 520 LINE",
"341 402 LINE",
"35 285 LINE",
"84 163 LINE",
"514 340 LINE"
);
}
);
width = 549;
}
);
unicode = 003E;
},
{
glyphname = bar;
layers = (
{
layerId = "4E6304A5-AAA7-499A-971C-E934927B9416";
name = Bold;
paths = (
{
closed = 1;
nodes = (
"100 701 LINE",
"100 -204 LINE",
"233 -204 LINE",
"233 701 LINE"
);
}
);
width = 333;
}
);
unicode = 007C;
},
{
glyphname = minus;
layers = (
{
layerId = "4E6304A5-AAA7-499A-971C-E934927B9416";
name = Bold;
paths = (
{
closed = 1;
nodes = (
"212 172 LINE",
"581 172 LINE",
"581 305 LINE",
"212 305 LINE"
);
}
);
width = 833;
}
);
unicode = 2212;
},
{
glyphname = dollar;
layers = (
{
layerId = "4E6304A5-AAA7-499A-971C-E934927B9416";
name = Bold;
paths = (
{
closed = 1;
nodes = (
"224 776 LINE",
"224 692 LINE",
"141 686 OFFCURVE",
"41 629 OFFCURVE",
"41 496 CURVE SMOOTH",
"41 272 OFFCURVE",
"366 285 OFFCURVE",
"366 211 CURVE SMOOTH",
"366 170 OFFCURVE",
"322 162 OFFCURVE",
"293 162 CURVE",
"255 164 OFFCURVE",
"172 178 OFFCURVE",
"172 258 CURVE",
"15 258 LINE",
"15 17 LINE",
"161 17 LINE",
"172 77 LINE",
"189 62 OFFCURVE",
"206 50 OFFCURVE",
"224 40 CURVE",
"224 -91 LINE",
"365 -91 LINE",
"365 12 LINE",
"468 14 OFFCURVE",
"588 60 OFFCURVE",
"588 206 CURVE SMOOTH",
"588 429 OFFCURVE",
"251 407 OFFCURVE",
"251 505 CURVE SMOOTH",
"251 539 OFFCURVE",
"285 556 OFFCURVE",
"310 556 CURVE SMOOTH",
"373 556 OFFCURVE",
"421 515 OFFCURVE",
"421 445 CURVE",
"575 445 LINE",
"575 679 LINE",
"429 679 LINE",
"421 623 LINE",
"408 645 OFFCURVE",
"388 661 OFFCURVE",
"365 672 CURVE",
"365 776 LINE"
);
}
);
width = 603;
}
);
unicode = 0024;
},
{
glyphname = asciicircum;
layers = (
{
layerId = "4E6304A5-AAA7-499A-971C-E934927B9416";
name = Bold;
paths = (
{
closed = 1;
nodes = (
"227 700 LINE",
"10 303 LINE",
"188 303 LINE",
"300 527 LINE",
"409 303 LINE",
"587 303 LINE",
"372 700 LINE"
);
}
);
width = 597;
}
);
unicode = 005E;
},
{
glyphname = grave;
layers = (
{
layerId = "4E6304A5-AAA7-499A-971C-E934927B9416";
name = Bold;
paths = (
{
closed = 1;
nodes = (
"257 750 LINE",
"372 563 LINE",
"244 562 LINE",
"77 749 LINE"
);
}
);
width = 500;
}
);
unicode = 0060;
userData = {
com.typemytype.robofont.layerData = {
};
};
},
{
glyphname = acute;
layers = (
{
layerId = "4E6304A5-AAA7-499A-971C-E934927B9416";
name = Bold;
paths = (
{
closed = 1;
nodes = (
"208 749 LINE",
"94 562 LINE",
"221 561 LINE",
"388 749 LINE"
);
}
);
width = 440;
}
);
unicode = 00B4;
userData = {
com.typemytype.robofont.layerData = {
};
};
},
